<?xml version="1.0" standalone="no"?>
<!DOCTYPE svg PUBLIC "-//W3C//DTD SVG 20010904//EN"
 "http://www.w3.org/TR/2001/REC-SVG-20010904/DTD/svg10.dtd">
<svg version="1.0" xmlns="http://www.w3.org/2000/svg"
 width="496.000000pt" height="496.000000pt" viewBox="0 0 496.000000 496.000000"
 preserveAspectRatio="xMidYMid meet">
<metadata>
Created by potrace 1.11, written by Peter Selinger 2001-2013
</metadata>
<g transform="translate(0.000000,496.000000) scale(0.100000,-0.100000)"
fill="#000000" stroke="none">
<path d="M2773 4897 c1 -7 -3 -11 -8 -10 -6 1 -12 -10 -13 -24 -2 -27 -30 -55
-47 -49 -6 2 -12 -5 -12 -15 -2 -17 0 -18 13 -4 9 8 21 12 27 8 7 -4 4 -9 -9
-14 -10 -4 -13 -8 -6 -8 7 -1 10 -6 7 -11 -4 -6 -10 -8 -15 -5 -5 3 -12 0 -16
-6 -4 -7 -3 -9 3 -6 6 4 11 -3 11 -17 0 -16 -8 -26 -20 -29 -13 -4 -17 -10
-12 -18 5 -9 2 -10 -11 -5 -16 6 -16 4 -4 -10 11 -14 11 -18 -3 -28 -15 -11
-15 -13 0 -23 15 -10 14 -12 -8 -13 -20 0 -22 -2 -10 -10 11 -7 8 -9 -15 -8
-16 1 -33 7 -37 13 -5 6 -8 4 -8 -5 0 -13 -1 -13 -10 0 -9 13 -10 13 -10 0 0
-13 -2 -13 -11 0 -9 12 -10 12 -5 -3 3 -10 1 -27 -4 -38 -14 -24 -42 -26 -34
-1 5 14 4 15 -5 2 -10 -14 -16 -7 -12 13 1 5 -3 6 -8 2 -6 -3 -7 -13 -4 -22 4
-10 2 -14 -5 -9 -6 3 -14 2 -17 -4 -4 -6 -1 -9 6 -8 7 2 13 -3 14 -11 0 -8 7
-16 15 -18 12 -4 12 -3 1 5 -8 6 -9 12 -3 16 6 3 13 2 17 -4 3 -5 15 -10 25
-10 10 0 21 -4 24 -9 3 -4 -7 -6 -22 -3 -15 3 -24 1 -20 -3 4 -4 0 -14 -10
-21 -15 -12 -15 -13 6 -9 12 2 22 0 22 -6 0 -5 5 -9 11 -9 5 0 8 4 4 9 -3 5 0
13 6 17 7 4 9 3 5 -4 -3 -6 -2 -13 4 -17 5 -3 10 -11 10 -16 0 -9 -30 -7 -62
6 -11 4 -18 3 -18 -4 0 -6 3 -10 8 -10 25 4 33 -2 26 -23 -7 -23 -23 -39 -34
-33 -3 2 -6 -10 -7 -25 -2 -23 1 -28 15 -24 14 5 14 4 3 -4 -8 -6 -19 -9 -25
-8 -6 2 -8 1 -3 -1 4 -3 4 -10 1 -15 -4 -6 -2 -8 3 -5 6 4 14 0 17 -9 5 -12
10 -13 19 -6 10 8 13 6 14 -11 2 -17 0 -19 -7 -7 -9 13 -10 13 -10 0 0 -12 -2
-12 -8 -2 -5 8 -16 10 -27 6 -14 -6 -16 -4 -10 6 5 9 4 11 -4 6 -15 -10 -3
-29 15 -22 9 3 14 -1 14 -13 0 -10 -7 -22 -16 -25 -11 -4 -15 -2 -11 8 4 11 1
13 -10 9 -11 -4 -14 -2 -9 5 4 7 3 12 -3 12 -5 0 -9 -8 -9 -17 0 -10 -3 -27
-7 -37 -6 -14 -5 -17 3 -12 7 4 12 14 12 23 0 9 3 13 6 10 11 -10 -25 -76 -48
-88 -15 -8 -18 -8 -14 0 4 6 2 11 -3 11 -6 0 -11 -5 -11 -10 0 -6 -3 -9 -7 -9
-5 1 -11 0 -15 -1 -5 -1 -11 -3 -15 -5 -27 -7 -42 -18 -37 -27 3 -5 12 -1 20
9 12 16 14 14 14 -14 0 -5 -12 -8 -28 -8 -17 0 -26 -5 -24 -13 1 -8 -2 -11 -7
-8 -5 4 -13 1 -17 -5 -5 -9 -11 -7 -21 6 -7 11 -13 17 -14 14 -9 -51 -14 -57
-38 -42 -15 10 -18 9 -17 -5 1 -11 -5 -16 -18 -14 -18 3 -18 2 -2 -13 9 -9 13
-22 9 -28 -4 -7 0 -8 11 -4 9 4 15 3 11 -2 -3 -5 1 -12 7 -14 10 -4 10 -6 0
-6 -7 -1 -11 -5 -8 -9 3 -5 -1 -9 -9 -9 -12 0 -12 3 -2 16 9 11 9 13 0 8 -7
-4 -16 0 -22 10 -10 17 -10 16 -7 -2 6 -35 18 -55 30 -48 6 3 8 2 3 -2 -11
-13 -50 -17 -57 -6 -3 6 -11 2 -17 -8 -9 -14 -8 -18 3 -18 7 0 10 5 7 10 -3 6
-1 7 6 3 6 -4 9 -12 5 -17 -3 -5 -9 -7 -14 -4 -5 3 -21 -6 -36 -20 -24 -23
-52 -26 -38 -4 3 5 10 6 16 3 7 -5 8 -2 3 6 -5 8 -4 11 2 7 6 -4 14 0 17 9 8
21 8 24 -5 24 -5 0 -7 -4 -4 -10 6 -9 -8 -14 -28 -11 -5 1 -6 -2 -4 -7 3 -4
-4 -19 -15 -32 -14 -17 -18 -19 -14 -7 3 10 2 16 -3 12 -5 -3 -11 1 -14 7 -3
10 -8 10 -18 -1 -8 -8 -9 -11 -3 -8 7 4 15 -1 18 -10 8 -20 -9 -40 -19 -22 -5
8 -4 10 3 5 7 -4 12 -2 12 4 0 6 -14 9 -35 7 -19 -2 -32 0 -29 4 3 5 -4 9 -16
9 -14 0 -19 4 -15 13 4 6 -3 -1 -15 -16 -22 -28 -22 -28 -37 -7 -8 11 -19 17
-25 14 -7 -5 -9 0 -6 14 4 15 0 22 -18 26 -13 4 -24 11 -24 17 0 6 7 6 20 -1
11 -6 20 -7 20 -2 0 5 -10 14 -23 19 -19 9 -26 8 -35 -8 -10 -15 -8 -20 11
-31 12 -7 25 -11 29 -10 4 1 5 -10 2 -23 -2 -14 0 -25 6 -25 6 0 8 -5 5 -10
-4 -6 -11 -8 -16 -5 -5 3 -6 -1 -2 -10 4 -12 8 -13 13 -5 5 8 9 7 14 -5 3 -9
4 -21 0 -26 -3 -5 0 -9 6 -9 6 0 -4 -16 -21 -35 -31 -34 -65 -51 -39 -20 7 9
10 18 6 22 -3 3 -6 0 -6 -7 0 -9 -4 -8 -13 4 -12 16 -14 16 -14 2 0 -9 5 -16
11 -16 6 0 -4 -9 -21 -20 -18 -11 -33 -25 -33 -32 0 -10 2 -10 9 1 5 7 11 9
13 5 3 -5 3 -3 1 5 -2 9 2 11 13 7 8 -3 18 -6 20 -6 2 0 4 -5 4 -11 0 -5 -4
-7 -10 -4 -5 3 -10 1 -10 -5 0 -7 6 -10 14 -7 8 3 17 -1 20 -10 8 -19 10 -16
-34 -38 -34 -18 -35 -18 -20 1 14 17 13 18 -1 7 -9 -7 -19 -9 -24 -5 -4 4 -2
-3 4 -16 7 -13 17 -20 24 -16 7 4 8 3 4 -2 -5 -5 -12 -9 -15 -9 -4 0 -13 -4
-21 -9 -9 -6 -12 -5 -8 1 4 6 0 13 -8 17 -8 3 -17 0 -21 -6 -4 -7 -3 -8 4 -4
7 4 12 3 12 -3 0 -5 -6 -12 -12 -14 -9 -4 -7 -6 3 -6 19 -1 20 -41 0 -64 -10
-13 -17 -14 -37 -5 -13 6 -24 15 -24 20 0 5 -5 6 -10 3 -6 -4 -8 -10 -6 -14 3
-4 -1 -8 -9 -8 -8 0 -15 5 -15 11 0 6 -4 6 -11 -1 -15 -15 -2 -33 19 -27 14 5
14 3 -2 -10 -11 -9 -16 -16 -10 -16 5 0 2 -5 -6 -11 -11 -8 -12 -12 -2 -16 6
-2 9 -9 6 -14 -3 -6 -11 -5 -20 2 -9 7 -14 8 -13 3 1 -5 1 -16 0 -24 -1 -13
-2 -13 -12 0 -9 13 -10 13 -6 0 2 -8 10 -14 16 -12 7 1 10 -2 7 -7 -4 -5 -2
-13 4 -16 8 -5 7 -12 -2 -23 -11 -13 -10 -15 5 -9 11 4 16 3 12 -3 -9 -14 -19
-12 -41 8 -16 16 -22 17 -32 5 -12 -13 -5 -18 21 -14 10 1 9 -11 -3 -29 -5 -8
-10 -10 -10 -5 0 6 -9 16 -21 23 -12 8 -18 9 -15 4 3 -5 -6 -9 -19 -9 -22 0
-24 2 -13 16 7 9 8 13 3 8 -4 -4 -17 1 -28 10 -19 17 -20 17 -8 -4 8 -16 8
-23 1 -23 -6 0 -8 -5 -5 -10 4 -6 1 -17 -5 -25 -10 -12 -9 -15 9 -15 11 0 21
6 21 13 0 8 3 7 10 -3 5 -9 5 -19 0 -24 -11 -11 -1 -38 13 -29 6 3 7 1 3 -6
-4 -6 -12 -9 -17 -6 -5 4 -9 2 -9 -3 0 -11 30 -26 45 -23 6 1 3 -5 -7 -12 -18
-15 -26 -46 -15 -64 12 -19 -46 -5 -60 14 -7 9 -13 12 -13 5 0 -6 -6 -9 -14
-6 -8 3 -14 11 -12 17 1 7 1 9 -1 4 -3 -4 -9 -5 -14 -1 -5 3 -9 1 -9 -4 0 -6
7 -13 16 -16 8 -3 13 -10 10 -15 -3 -4 6 -7 19 -5 27 2 42 -11 24 -22 -8 -4
-7 -9 2 -15 10 -6 11 -9 2 -9 -7 0 -13 -12 -13 -27 l0 -28 -18 23 c-17 21 -18
22 -18 3 0 -11 3 -18 7 -15 4 2 10 -3 13 -12 3 -9 11 -12 18 -8 8 5 7 0 -2
-11 -8 -10 -10 -16 -3 -12 6 4 15 2 19 -4 5 -8 3 -9 -6 -4 -9 6 -12 4 -8 -7
10 -24 -6 -83 -22 -83 -8 0 -16 -9 -16 -20 -1 -11 -3 -27 -5 -35 -3 -9 2 -14
11 -12 11 3 11 -1 -3 -16 -9 -10 -15 -22 -12 -25 3 -4 -1 -2 -7 3 -10 9 -10
13 1 19 8 5 9 11 3 15 -5 3 -24 -7 -42 -24 -17 -16 -29 -24 -27 -17 2 7 -3 21
-12 31 -9 11 -10 16 -3 12 6 -4 12 -3 12 2 0 5 6 9 14 9 8 0 12 -6 9 -14 -3
-9 0 -11 10 -7 16 6 13 34 -3 34 -5 0 -7 9 -5 20 5 24 -10 27 -19 4 -4 -10 -2
-13 7 -8 6 4 8 3 4 -1 -13 -15 -39 -15 -33 0 3 8 0 17 -6 21 -7 4 -8 3 -4 -4
4 -7 3 -12 -3 -12 -6 0 -7 -7 -4 -17 4 -11 3 -14 -5 -9 -14 9 -38 -13 -37 -34
0 -17 -27 -49 -37 -43 -9 4 -4 -24 6 -34 4 -4 6 -1 4 7 -2 9 3 14 14 12 9 -1
19 2 23 8 3 6 0 7 -9 4 -9 -3 -16 -1 -16 6 0 6 4 8 10 5 5 -3 11 -1 11 4 1 6
3 16 4 21 1 6 3 13 4 16 0 4 7 1 14 -5 8 -6 18 -7 23 -3 4 4 2 -1 -5 -10 -7
-10 -17 -15 -22 -12 -6 3 -7 -8 -4 -26 3 -17 2 -29 -3 -26 -5 3 -9 -1 -9 -9 0
-12 3 -12 16 -2 12 10 14 9 8 -5 -3 -10 -2 -20 3 -23 6 -4 10 -11 10 -17 0 -7
-6 -6 -15 2 -19 16 -20 3 -1 -15 8 -8 25 -12 42 -9 16 2 24 1 19 -3 -15 -11
-13 -90 2 -90 7 0 9 5 6 11 -4 7 -2 8 5 1 6 -5 12 -17 14 -25 4 -18 21 -39 29
-35 3 2 5 -7 5 -20 0 -13 -3 -22 -7 -19 -4 2 -7 -5 -6 -16 1 -21 17 -29 17 -8
0 6 3 8 7 4 5 -4 -1 -14 -11 -22 -14 -10 -16 -14 -5 -14 11 0 12 -2 1 -9 -8
-4 -14 -12 -15 -17 -1 -5 -5 -8 -9 -6 -5 1 -8 -2 -8 -8 0 -6 -5 -9 -11 -8 -6
2 -14 -4 -16 -12 -3 -9 -1 -11 4 -5 13 16 33 16 27 0 -4 -8 -11 -15 -17 -15
-6 0 -8 -3 -5 -6 4 -3 16 0 28 6 25 13 32 9 36 -23 4 -33 4 -33 14 -17 7 12
11 12 20 2 5 -6 7 -10 3 -7 -12 9 -42 -26 -36 -43 4 -14 3 -15 -6 -2 -5 8 -13
11 -17 7 -4 -3 -1 -14 7 -24 11 -14 9 -13 -13 2 -25 19 -27 29 -7 31 5 1 13 2
17 3 5 0 9 8 9 16 0 8 -3 13 -5 10 -3 -3 -11 0 -19 6 -9 9 -13 8 -13 0 0 -6 5
-11 10 -11 6 0 10 -5 10 -11 0 -5 -4 -8 -9 -4 -5 3 -12 1 -16 -5 -4 -6 -11 -8
-16 -4 -23 14 16 -35 40 -50 14 -10 19 -15 11 -13 -9 2 -22 -8 -32 -25 -20
-32 -30 -35 -49 -12 -10 13 -10 17 2 24 12 8 11 12 -5 27 -14 12 -16 13 -8 2
6 -9 9 -19 5 -22 -11 -12 -23 -8 -23 7 0 8 -4 17 -9 20 -25 16 6 -38 39 -68
21 -19 35 -38 32 -42 -4 -5 2 -2 12 6 18 14 19 13 13 -2 -3 -10 -3 -18 2 -18
15 0 21 13 10 26 -10 13 6 32 18 20 4 -3 0 -6 -8 -6 -12 0 -12 -2 0 -9 12 -8
12 -12 2 -25 -11 -13 -11 -16 0 -17 8 0 4 -5 -8 -11 -13 -6 -23 -15 -23 -21 0
-5 7 -4 15 3 9 7 19 9 23 5 4 -4 1 -10 -5 -12 -7 -3 -13 -11 -13 -19 0 -9 -4
-12 -10 -9 -5 3 -10 1 -10 -4 0 -6 6 -11 13 -11 9 0 12 -10 9 -30 -4 -26 -1
-30 19 -31 21 -1 21 -2 4 -6 -25 -7 -64 -33 -48 -33 7 0 15 4 18 10 3 5 11 10
17 10 6 0 1 -8 -10 -19 -12 -10 -18 -22 -14 -26 4 -5 -1 -5 -10 -2 -22 8 -23
1 -4 -19 8 -8 13 -23 11 -34 -2 -12 2 -20 10 -20 16 0 29 -34 20 -52 -4 -7 1
-4 11 7 16 20 16 20 11 -3 -7 -30 17 -40 42 -18 10 9 21 13 26 9 4 -5 5 -2 1
5 -6 10 -12 9 -29 -3 -35 -24 -43 -17 -11 10 18 16 32 21 38 15 6 -6 17 -10
26 -10 9 1 6 6 -10 15 -18 9 -29 10 -38 3 -10 -8 -11 -7 -6 7 6 14 4 16 -6 10
-9 -5 -11 -4 -6 4 4 6 13 8 19 5 7 -4 9 -4 5 1 -4 4 -3 14 4 22 9 11 14 11 31
-4 19 -18 20 -17 6 5 -8 12 -20 20 -26 17 -7 -2 -13 1 -13 8 0 8 -4 7 -9 -3
-6 -8 -7 -19 -4 -25 4 -5 3 -7 -2 -3 -4 4 -14 0 -21 -10 -9 -11 -13 -13 -14
-4 0 8 -5 10 -12 6 -10 -5 -10 -4 -1 6 9 10 9 19 1 34 -6 12 -7 18 -3 14 5 -4
14 -3 22 3 9 9 13 8 13 0 0 -6 -4 -11 -10 -11 -5 0 -10 -4 -10 -8 0 -13 30
-10 32 2 4 32 3 42 -7 49 -6 5 -2 6 10 3 17 -5 16 -3 -5 14 l-25 20 31 -12
c17 -7 32 -16 33 -20 3 -20 0 -27 -11 -24 -7 1 -10 1 -5 -1 4 -3 5 -9 1 -14
-3 -5 -1 -9 4 -9 6 0 12 7 16 15 3 8 11 15 17 15 8 0 8 -4 1 -13 -8 -9 -5 -19
8 -37 16 -21 21 -23 32 -12 11 11 10 12 -2 7 -9 -3 -21 4 -29 17 -13 21 -13
22 2 9 10 -7 17 -10 17 -6 0 4 6 2 14 -4 11 -9 15 -9 19 1 4 10 6 10 6 1 1 -7
7 -13 14 -13 7 0 23 -9 35 -21 12 -11 27 -17 32 -14 6 4 13 -1 16 -10 6 -13 9
-14 15 -3 6 9 8 6 6 -9 -2 -12 -7 -26 -12 -30 -4 -5 -5 -2 -1 4 4 7 2 13 -3
13 -20 0 -26 4 -44 27 -10 13 -23 20 -29 17 -7 -5 -8 -2 -3 7 6 11 5 12 -6 2
-17 -17 -29 -17 -25 -1 1 7 1 10 -1 6 -8 -13 2 -23 22 -23 11 0 21 -4 22 -10
1 -5 -8 -9 -20 -8 -20 3 -20 2 -4 -8 13 -8 22 -7 31 0 10 9 15 8 20 -4 3 -9
11 -13 18 -9 7 5 9 2 5 -9 -3 -9 -1 -17 6 -20 12 -4 -17 -58 -31 -56 -25 4
-52 -3 -49 -12 1 -6 -11 -13 -28 -15 -25 -3 -27 -2 -12 6 9 6 23 8 30 4 9 -5
9 -4 0 6 -11 12 -18 10 -44 -9 l-31 -23 6 23 c6 21 6 22 -5 5 -9 -14 -8 -21 6
-35 10 -9 15 -10 11 -3 -5 7 -1 12 9 12 9 0 14 -4 11 -8 -8 -13 30 -8 47 6 7
7 17 9 20 5 4 -3 7 -2 7 4 0 6 13 13 29 15 17 2 28 1 25 -4 -3 -4 -1 -8 5 -8
5 0 13 4 16 10 8 13 25 13 25 -1 0 -5 -4 -8 -9 -4 -6 3 -9 -4 -8 -15 1 -21 17
-29 17 -8 0 6 3 9 6 5 3 -3 2 -12 -2 -19 -9 -13 -11 -19 -13 -40 0 -7 -8 -3
-17 8 -14 17 -15 17 -10 1 4 -12 2 -16 -6 -11 -8 5 -9 2 -5 -9 8 -22 -25 -41
-43 -24 -7 7 -10 8 -8 2 3 -5 0 -16 -8 -23 -14 -12 -19 -8 -14 13 1 6 -2 7 -6
2 -4 -4 -8 -17 -9 -28 -1 -14 3 -18 14 -14 12 4 12 2 -2 -9 -15 -11 -15 -15
-3 -19 24 -9 38 -44 21 -50 -9 -4 -12 -1 -8 9 6 16 -12 20 -22 4 -3 -5 -12
-10 -18 -10 -7 1 -2 9 10 19 21 18 22 19 3 24 -14 3 -17 1 -13 -11 4 -10 2
-13 -5 -8 -7 4 -20 2 -29 -4 -15 -9 -14 -10 7 -4 l25 6 -22 -21 c-28 -26 -28
-26 -4 -28 11 -1 25 5 31 13 7 7 17 11 22 8 6 -4 6 -9 -2 -14 -8 -5 -7 -12 5
-24 14 -14 14 -16 1 -16 -8 0 -18 -5 -22 -12 -4 -6 -3 -8 4 -4 6 3 13 2 16 -3
4 -5 -3 -12 -14 -16 -11 -4 -17 -11 -14 -17 5 -7 2 -8 -6 -3 -7 4 -16 2 -21
-6 -4 -8 -14 -14 -21 -14 -7 0 -13 -6 -13 -14 0 -8 -7 -16 -15 -18 -9 -3 -11
-1 -5 4 6 4 11 17 12 28 1 11 0 14 -3 7 -3 -6 -10 -10 -15 -7 -5 4 -6 -2 -2
-11 5 -13 3 -15 -7 -9 -8 5 -11 4 -6 -3 3 -5 0 -13 -6 -16 -9 -4 -8 -5 2 -5
31 2 41 -1 35 -12 -4 -6 -9 -8 -12 -5 -3 2 -15 1 -28 -4 -16 -6 -27 -5 -34 4
-6 7 -10 15 -8 17 1 2 -2 -1 -8 -7 -5 -6 -18 -10 -27 -8 -10 1 -20 -2 -24 -7
-3 -5 -9 -7 -14 -4 -5 3 -11 1 -15 -5 -3 -5 1 -10 9 -10 26 0 28 -20 4 -29
-17 -7 -19 -10 -5 -10 9 -1 17 -6 17 -12 0 -5 -4 -7 -10 -4 -6 3 -10 4 -10 0
0 -3 10 -10 22 -16 20 -8 18 -9 -12 -5 -19 3 -29 2 -22 -1 6 -2 12 -12 12 -20
0 -11 -7 -14 -24 -9 -14 3 -27 2 -30 -3 -4 -5 7 -12 24 -16 17 -4 28 -11 24
-16 -3 -5 0 -10 5 -10 6 -1 15 -2 20 -3 5 0 13 -5 18 -10 5 -5 3 -6 -4 -2 -7
4 -13 2 -13 -4 0 -6 -4 -9 -9 -5 -5 3 -12 1 -16 -5 -3 -5 -11 -10 -18 -10 -6
0 -3 6 6 12 16 12 16 14 -4 26 -12 8 -18 9 -14 2 4 -6 1 -17 -5 -25 -6 -8 -9
-19 -5 -24 3 -7 0 -8 -9 -5 -9 3 -16 10 -16 15 0 5 -5 9 -12 9 -6 0 -4 -8 6
-19 14 -15 14 -20 3 -30 -15 -12 -16 -48 -3 -70 6 -9 5 -12 -2 -7 -6 3 -13 2
-17 -4 -3 -5 2 -10 12 -10 17 -1 17 -1 0 -11 -13 -8 -22 -7 -33 1 -11 10 -17
10 -28 1 -8 -7 -17 -8 -20 -3 -8 13 18 34 30 24 5 -4 0 4 -11 17 -11 14 -15
21 -8 18 6 -4 14 -3 18 3 3 5 2 10 -2 10 -5 0 -9 10 -10 23 -2 19 -1 20 8 4
15 -26 20 -59 7 -51 -5 4 -2 -5 7 -20 16 -25 34 -38 19 -15 -3 6 0 16 7 21 10
7 9 8 -6 4 -19 -6 -19 -5 -2 8 15 12 16 14 2 20 -8 3 -15 11 -15 17 0 8 4 8
15 -1 12 -10 14 -8 10 9 -2 13 0 19 7 15 6 -4 6 1 -1 15 -7 11 -17 21 -24 20
-9 0 -9 -2 0 -6 20 -7 15 -19 -7 -20 -13 -1 -18 2 -13 10 4 7 0 6 -10 -2 -9
-7 -17 -22 -17 -33 0 -13 -4 -17 -13 -11 -6 4 -4 -5 6 -21 18 -28 18 -28 -2
-21 -13 4 -21 2 -21 -5 0 -6 5 -8 11 -4 7 4 10 1 7 -7 -3 -8 -14 -13 -24 -11
-15 2 -16 1 -4 -7 8 -5 17 -8 21 -5 4 2 12 -3 18 -10 10 -11 8 -17 -6 -25 -17
-10 -17 -10 0 -11 10 0 17 -8 17 -21 0 -11 4 -18 9 -15 5 3 15 -2 22 -11 11
-13 11 -15 1 -9 -10 6 -11 2 -7 -17 4 -14 2 -28 -4 -31 -6 -4 -8 2 -6 15 2 12
1 18 -3 15 -4 -4 -7 -13 -7 -19 -1 -7 -7 -11 -15 -9 -8 2 -11 0 -7 -5 5 -4 13
-9 18 -9 22 -3 23 -5 9 -14 -10 -6 -21 -4 -35 8 -20 17 -20 17 -1 -5 10 -13
24 -20 30 -16 6 4 5 -1 -3 -10 -17 -22 -24 -87 -9 -87 7 0 3 -7 -8 -15 -19
-15 -19 -15 1 -8 16 6 18 4 8 -8 -9 -11 -8 -18 3 -33 8 -11 14 -14 14 -7 0 7
5 9 12 5 7 -5 8 -3 4 5 -6 8 -2 11 10 9 10 -2 19 3 20 10 1 6 2 17 3 22 0 6 6
10 12 10 8 0 7 -6 -2 -17 -12 -15 -12 -16 4 -10 12 5 16 3 11 -5 -5 -8 -2 -9
9 -5 18 7 33 -8 17 -18 -14 -9 -1 -27 13 -19 9 5 9 4 0 -6 -9 -10 -2 -22 34
-55 25 -24 40 -45 35 -49 -6 -3 -13 3 -17 14 -4 11 -11 18 -16 15 -5 -4 -3
-12 5 -20 8 -8 16 -19 18 -25 2 -8 11 -8 28 -1 20 8 21 10 6 10 -15 1 -16 4
-7 15 15 18 49 9 56 -15 4 -11 11 -17 16 -13 6 3 16 0 24 -6 11 -9 15 -9 15
-1 0 15 16 14 33 -4 8 -8 17 -11 21 -8 3 4 6 2 6 -4 0 -21 -13 -21 -32 0 -11
12 -17 17 -14 10 4 -7 -2 -10 -17 -9 -13 2 -33 -3 -43 -11 -18 -13 -17 -14 8
-9 15 2 32 7 37 10 5 4 12 2 16 -4 3 -5 1 -10 -5 -10 -6 0 -8 -5 -4 -11 4 -8
9 -7 14 2 7 10 12 10 26 -2 10 -8 15 -9 11 -3 -4 7 2 12 18 12 16 0 22 -5 18
-12 -4 -7 -1 -6 9 1 8 7 18 10 21 6 4 -3 7 -1 7 5 0 17 -18 24 -37 13 -15 -7
-18 -5 -19 15 -2 23 -1 24 12 7 11 -14 13 -15 14 -3 0 10 10 5 27 -15 16 -18
28 -25 30 -18 3 7 11 9 19 6 7 -3 11 -10 7 -17 -3 -6 -1 -6 8 2 16 14 33 16
24 2 -7 -12 23 -2 44 14 11 8 13 8 8 0 -4 -7 0 -14 8 -17 9 -4 12 -1 8 9 -3 9
1 14 12 14 10 0 13 -4 8 -13 -4 -6 5 -4 20 6 33 22 43 22 26 0 -11 -13 -11
-15 -1 -9 9 5 23 -1 38 -15 23 -21 25 -22 19 -4 -6 20 -6 20 6 0 6 -11 20 -29
30 -40 17 -19 19 -23 19 -42 0 -5 5 -1 10 7 8 13 10 12 10 -2 0 -10 5 -18 11
-18 5 0 8 3 6 8 -3 4 7 8 21 9 14 0 31 8 37 17 7 9 16 12 20 8 5 -4 5 1 2 11
-4 9 -2 17 3 17 5 0 21 5 37 12 44 18 54 18 51 0 -2 -11 3 -16 13 -14 20 3 27
-25 23 -90 -1 -27 2 -48 7 -48 6 0 7 -4 4 -10 -3 -5 -1 -10 5 -10 6 0 8 -5 4
-12 -5 -7 -3 -8 5 -4 7 5 10 14 7 22 -3 8 -1 14 5 14 6 0 5 9 -2 23 -11 20
-11 21 5 8 14 -12 16 -12 10 4 -5 12 -4 16 3 12 6 -4 35 1 64 9 61 18 131 80
107 95 -10 7 -10 9 0 9 6 0 13 0 15 -1 1 0 14 4 30 10 20 8 27 7 27 -2 0 -7 7
-4 14 6 8 10 18 18 23 19 4 0 7 4 5 10 -1 5 3 6 9 2 9 -5 6 -12 -9 -25 -22
-17 -31 -36 -12 -24 5 3 19 8 31 10 17 3 19 2 9 -10 -7 -8 -16 -12 -21 -9 -5
3 -9 0 -9 -5 0 -10 21 -16 43 -12 4 0 7 -4 7 -9 0 -6 12 -10 28 -9 15 0 21 3
14 6 -6 2 -10 9 -7 13 3 5 12 7 20 3 8 -3 15 -1 15 5 0 6 8 9 18 7 9 -1 23 3
31 9 11 8 13 8 7 -2 -12 -20 7 -13 29 11 11 12 17 18 13 13 -16 -21 -7 -26 17
-10 14 9 25 12 25 8 0 -5 4 -3 9 4 4 7 18 14 30 15 12 1 30 10 39 21 16 20 16
20 -1 6 -11 -8 -28 -15 -39 -17 -17 -3 -19 -1 -8 12 7 8 16 12 21 9 13 -8 11
10 -3 25 -8 8 -8 11 -2 8 7 -4 14 3 17 15 5 18 8 19 21 8 11 -8 16 -9 16 -1 0
6 -4 11 -9 11 -11 0 -8 47 4 58 4 4 5 1 1 -5 -4 -7 -4 -13 1 -13 12 0 35 16
36 26 1 5 5 8 8 7 12 -4 41 36 34 47 -3 5 -11 8 -16 4 -5 -3 -6 -10 -3 -16 4
-7 2 -8 -5 -4 -9 6 -9 11 0 22 8 10 15 11 24 4 9 -8 14 -6 19 5 3 8 11 15 18
14 10 0 10 -2 1 -6 -7 -2 -13 -9 -13 -14 0 -6 5 -7 12 -3 7 4 8 3 4 -5 -4 -6
-12 -9 -17 -6 -5 4 -9 1 -9 -4 0 -6 5 -11 12 -11 9 0 9 -3 1 -11 -9 -9 -17
-12 -53 -18 -3 -1 2 -6 10 -12 13 -9 12 -10 -3 -5 -12 4 -16 2 -11 -6 4 -6 3
-8 -4 -4 -6 3 -13 2 -16 -3 -14 -22 13 -19 38 4 14 13 26 21 26 17 0 -4 5 1
11 10 5 10 16 15 24 12 17 -7 21 11 5 21 -7 4 -7 12 0 24 5 10 6 22 2 26 -4 5
-2 5 5 1 6 -3 16 1 21 10 8 15 10 15 15 0 5 -11 3 -15 -5 -10 -7 5 -8 3 -3 -6
5 -8 4 -11 -3 -6 -6 3 -14 1 -18 -5 -4 -8 -3 -9 4 -5 7 4 12 1 12 -9 0 -10 -5
-13 -12 -9 -7 4 -8 3 -4 -4 11 -17 15 -15 26 14 6 14 14 23 19 19 5 -3 12 -1
16 5 4 6 11 7 17 4 7 -4 8 -2 4 5 -6 9 -11 9 -21 1 -9 -8 -14 -5 -18 10 -3 13
-1 18 6 13 17 -10 56 -10 50 1 -4 5 1 7 11 3 10 -4 24 -1 32 7 19 19 18 25 -3
21 -10 -1 -17 -8 -15 -16 2 -9 0 -10 -11 -1 -10 9 -17 9 -27 -1 -9 -8 -11 -8
-6 0 3 6 0 18 -9 26 -13 13 -13 16 1 21 8 3 13 9 11 14 -7 10 14 36 31 40 8 1
11 -2 8 -7 -3 -5 1 -14 9 -21 7 -6 11 -19 9 -28 -4 -13 -2 -12 7 2 11 18 12
18 31 -5 18 -23 19 -23 8 -2 -9 20 -8 23 7 24 14 0 13 2 -4 9 -13 5 -23 12
-23 15 0 4 4 4 9 1 5 -3 11 3 14 14 3 11 1 20 -5 20 -5 0 -6 5 -2 12 4 7 3 8
-4 4 -6 -4 -9 -14 -6 -24 5 -14 3 -14 -10 2 -9 11 -16 25 -16 30 0 6 4 5 9 -3
5 -8 11 -9 15 -3 3 6 2 13 -4 17 -16 10 -1 25 17 18 12 -5 14 -3 8 7 -5 9 -4
11 3 6 18 -11 14 10 -5 30 -17 17 -17 18 1 11 13 -5 17 -3 13 6 -3 8 1 14 9
14 7 0 11 -4 8 -9 -3 -5 6 -7 20 -4 15 3 24 1 21 -4 -3 -4 2 -10 10 -14 12 -4
36 22 39 44 1 3 4 4 8 3 7 -3 12 12 9 29 0 4 7 4 17 1 15 -6 16 -5 2 13 -8 10
-10 16 -6 12 5 -4 16 -2 24 5 13 10 14 9 7 -3 -13 -21 -15 -40 -4 -40 6 0 7
-4 4 -10 -3 -5 -11 -10 -16 -10 -6 0 -7 5 -3 12 4 7 3 8 -5 4 -6 -4 -9 -11 -6
-16 3 -5 -3 -7 -14 -5 -19 4 -23 -17 -6 -32 4 -4 5 -3 1 4 -3 6 -2 14 4 18 5
3 10 1 10 -4 0 -6 10 -9 23 -7 12 2 21 9 20 15 -5 18 15 12 20 -6 4 -15 5 -15
6 2 1 17 3 18 12 5 12 -16 11 -12 -7 35 -6 17 -4 16 14 -4 20 -22 28 -18 23
11 0 5 4 8 9 8 6 0 10 5 10 11 0 8 -5 8 -15 -1 -8 -7 -12 -17 -8 -23 3 -6 1
-7 -5 -3 -6 4 -8 14 -5 23 4 10 2 14 -4 10 -5 -3 -10 0 -10 8 0 11 4 12 13 4
19 -16 41 9 40 44 -1 15 1 27 4 27 3 0 6 11 6 25 0 30 0 30 -21 9 -13 -13 -16
-14 -13 -3 2 8 -1 14 -7 14 -5 0 -9 -3 -8 -6 1 -4 -7 -5 -18 -2 -16 5 -17 8
-7 21 11 13 11 14 -2 7 -13 -8 -13 -7 0 10 8 10 10 16 4 12 -7 -4 -15 1 -19
11 -13 28 -13 39 -4 53 8 11 9 10 7 -5 -2 -10 2 -21 9 -23 7 -3 10 3 6 15 -3
14 1 22 16 27 12 3 21 11 21 16 0 6 -4 7 -10 4 -6 -4 -7 1 -3 10 3 10 0 21 -8
26 -11 7 -11 9 -1 9 8 0 10 5 6 13 -4 6 -4 9 1 5 4 -4 14 0 22 8 13 12 18 11
46 -8 17 -12 27 -16 23 -9 -5 8 -1 14 14 18 16 4 18 8 8 14 -10 6 -10 11 0 21
9 9 12 9 12 0 0 -7 5 -12 12 -12 6 0 3 9 -7 20 -10 11 -23 20 -29 20 -6 0 -5
-4 2 -9 11 -7 11 -9 -2 -14 -10 -4 -13 -13 -10 -24 5 -15 4 -15 -4 -3 -8 10
-8 18 0 27 6 7 7 13 3 13 -4 0 -3 6 3 13 5 6 8 22 6 35 -4 21 -3 22 12 8 21
-22 27 -20 14 4 -9 16 -8 18 5 14 13 -5 19 -17 17 -35 -1 -3 5 -6 13 -6 10 0
11 5 5 17 -5 10 -7 20 -5 24 3 3 2 4 -1 1 -7 -4 -34 19 -34 30 0 3 9 1 19 -5
15 -7 19 -7 17 5 -1 8 -6 18 -11 22 -4 4 -5 2 -1 -5 4 -6 3 -12 -2 -12 -17 0
-22 13 -11 27 10 11 15 11 28 1 14 -12 14 -11 2 5 -9 11 -18 14 -25 8 -7 -6
-16 -4 -24 5 -7 8 -9 14 -4 14 5 0 9 16 9 35 0 19 -3 32 -7 30 -4 -2 -7 2 -7
10 0 8 4 12 9 9 15 -10 8 9 -9 23 -16 13 -16 13 5 3 23 -11 29 -3 12 18 -7 9
-7 9 2 2 7 -5 19 -10 27 -10 13 1 13 3 -2 14 -16 12 -16 14 -1 20 22 9 23 8
21 -15 -1 -11 -10 -25 -19 -30 -10 -6 -16 -14 -13 -20 4 -5 1 -9 -6 -9 -8 0
-8 -4 1 -15 7 -8 16 -13 20 -10 5 3 11 1 14 -4 9 -13 -20 -21 -32 -9 -13 13
-11 -9 2 -30 6 -10 11 -10 21 -2 16 13 39 4 29 -11 -3 -5 -10 -6 -16 -3 -7 5
-8 2 -4 -5 6 -9 13 -8 27 5 10 9 19 19 19 22 0 3 -3 2 -7 -1 -3 -4 -12 -2 -20
5 -11 9 -11 14 4 32 15 17 15 18 1 8 -11 -9 -18 -10 -23 -2 -3 6 -10 8 -15 5
-5 -3 -8 4 -7 15 2 25 6 25 24 2 13 -15 13 -15 3 6 -11 22 -10 23 9 17 13 -4
21 -2 21 5 0 6 -4 9 -9 6 -5 -3 -8 5 -8 18 0 18 4 23 16 19 13 -4 14 -3 1 5
-8 6 -17 9 -22 6 -4 -2 -12 6 -19 18 -9 19 -9 21 2 11 7 -7 18 -13 23 -13 6 0
3 5 -7 11 -9 6 -15 14 -12 19 3 5 0 12 -6 16 -8 4 -9 3 -5 -4 4 -7 3 -12 -3
-12 -13 0 -10 43 3 52 6 4 17 1 25 -5 12 -10 13 -9 7 1 -6 9 -1 15 15 19 13 4
26 5 28 4 2 -2 7 1 10 6 3 4 17 14 30 21 21 12 23 12 18 -2 -5 -13 -3 -15 11
-7 24 13 44 -1 36 -25 -3 -11 -2 -15 3 -9 12 15 47 19 37 4 -5 -8 -3 -10 5 -5
9 6 8 12 -4 26 -12 14 -13 20 -4 26 8 5 10 3 4 -6 -5 -8 -3 -11 6 -8 8 3 13
11 11 17 -1 7 2 10 7 7 5 -4 11 -3 14 1 5 10 -1 -12 -10 -34 -6 -15 -5 -16 9
-3 9 8 16 17 16 20 -1 19 4 30 13 30 6 0 8 -9 4 -22 -5 -18 -4 -20 4 -8 10 13
11 13 12 0 1 -8 0 -19 -1 -25 -1 -5 2 -6 6 -2 12 12 14 37 3 37 -6 0 -8 4 -4
9 3 5 1 12 -5 16 -5 3 -10 11 -10 16 0 6 11 -2 23 -17 17 -20 24 -23 24 -11 0
9 -5 13 -10 10 -6 -4 -7 -1 -3 6 5 7 14 10 22 7 7 -3 16 0 20 6 4 7 3 8 -4 4
-12 -7 -29 40 -18 51 3 4 6 -1 6 -10 0 -9 4 -18 9 -21 12 -8 0 36 -13 49 -6 6
-9 9 -7 8 2 -2 11 3 19 10 13 9 14 9 8 0 -5 -9 0 -13 14 -13 13 0 19 4 14 12
-5 7 -3 8 5 4 7 -5 10 -11 7 -14 -3 -3 1 -14 11 -24 18 -20 4 -25 -16 -5 -11
10 -11 8 0 -10 9 -15 17 -19 25 -13 6 6 15 6 19 2 5 -4 5 -2 2 4 -4 7 0 17 8
24 12 10 13 16 3 28 -11 13 -10 15 6 9 17 -7 17 -6 5 10 -12 15 -12 16 3 10
22 -8 14 18 -15 50 -11 13 -17 23 -13 23 5 0 3 6 -3 14 -8 10 -8 16 1 22 19
14 48 11 58 -6 7 -10 10 -11 10 -2 0 6 6 11 13 10 7 -2 11 6 9 19 -2 12 2 25
9 29 7 4 9 3 6 -3 -4 -6 0 -14 9 -17 8 -3 13 -9 10 -14 -2 -4 4 -8 15 -8 19 0
19 1 3 13 -10 7 -14 13 -10 13 5 0 2 7 -5 17 -13 15 -12 15 11 3 25 -13 25
-13 7 8 -17 19 -9 41 11 29 4 -3 7 5 7 18 0 13 -3 21 -7 18 -5 -2 -8 0 -8 6 0
5 6 12 13 14 7 3 4 6 -7 6 -15 1 -16 4 -6 16 7 9 10 18 6 22 -3 3 -6 0 -7 -8
0 -8 -4 -6 -8 6 -5 12 -3 25 6 33 12 12 11 16 -4 29 -10 8 -13 12 -6 9 6 -4
15 -1 19 5 5 8 3 9 -6 4 -9 -6 -12 -4 -8 7 4 8 0 15 -8 15 -7 0 -11 -4 -8 -8
2 -4 -1 -11 -7 -15 -8 -4 -9 -3 -5 4 4 7 2 12 -6 12 -7 0 -2 7 10 16 23 16 29
34 11 34 -5 0 -8 -4 -4 -9 3 -5 1 -12 -4 -15 -16 -11 -22 11 -6 24 19 16 10
30 -15 25 -19 -4 -24 5 -21 34 2 7 -2 10 -7 7 -10 -6 -25 21 -18 33 3 3 -5 18
-16 31 l-20 25 16 -27 c9 -16 13 -28 8 -28 -12 0 -30 41 -26 63 1 9 -2 17 -7
17 -5 0 -9 5 -9 11 0 5 5 7 11 4 6 -4 5 2 -2 13 -7 12 -16 19 -20 16 -4 -2
-10 3 -13 12 -3 8 -9 13 -14 10 -4 -2 -8 8 -7 24 0 27 1 28 17 13 23 -20 23
-27 1 -18 -13 4 -15 3 -7 -5 12 -12 44 -3 44 12 0 5 -4 7 -9 4 -5 -3 -11 3
-14 15 -5 18 -3 18 11 7 15 -11 15 -11 5 3 -7 9 -10 19 -6 23 4 4 -1 4 -11 0
-13 -5 -17 -4 -13 3 4 6 2 13 -4 15 -6 2 -13 16 -14 30 -2 15 -6 32 -11 39 -4
7 -3 10 3 6 7 -4 10 5 9 26 -1 18 6 43 17 59 11 14 16 32 12 40 -3 7 0 5 8 -4
15 -19 33 -25 22 -9 -3 6 3 14 12 20 10 6 13 11 8 11 -6 0 -16 -5 -22 -11 -8
-8 -13 -8 -17 0 -4 6 -21 11 -37 11 -17 0 -28 4 -25 9 8 12 -20 22 -41 14 -16
-6 -16 -4 1 16 16 18 17 21 3 16 -14 -6 -15 -3 -4 24 6 16 15 28 19 25 4 -3 8
0 8 6 0 7 -8 9 -20 5 -15 -5 -18 -3 -14 9 3 9 11 13 18 9 6 -3 7 -2 3 3 -5 5
-13 10 -18 10 -5 1 -10 2 -11 4 -11 8 -37 6 -32 -2 5 -7 2 -8 -5 -4 -7 5 -10
14 -7 22 3 8 0 14 -7 14 -9 0 -9 2 0 8 9 6 12 47 3 47 -1 0 -3 8 -5 18 -2 13
1 17 10 13 8 -3 17 0 21 6 5 7 2 8 -7 4 -9 -5 -9 -3 1 6 9 7 14 21 12 30 -2 9
6 22 18 28 17 9 22 7 30 -12 5 -14 9 -17 9 -7 1 16 27 19 49 5 8 -5 11 -3 10
6 -2 7 3 12 10 10 6 -1 12 2 12 8 0 13 -13 13 -27 -1 -7 -7 -12 -6 -17 6 -3
10 -2 14 4 10 7 -4 9 3 6 19 -3 15 -1 24 4 21 5 -3 11 -1 15 5 5 9 -7 14 -27
11 -4 0 -5 6 -2 14 4 8 10 15 16 15 5 0 7 -4 4 -8 -3 -5 1 -9 9 -9 21 0 19 4
-10 23 -18 12 -29 13 -38 6 -18 -15 -34 -2 -40 33 -3 17 -6 35 -8 40 -3 15 12
45 23 45 6 0 5 -6 -2 -15 -9 -10 -9 -15 -1 -15 6 0 11 3 12 8 0 4 2 15 4 25 2
9 0 15 -5 12 -4 -3 -7 3 -6 13 0 10 -5 16 -13 14 -12 -3 -12 0 -1 13 11 13 10
19 -5 35 -10 11 -23 17 -29 13 -6 -4 -5 1 3 10 7 9 17 15 21 12 4 -2 16 5 26
18 l19 22 -22 -18 c-12 -11 -23 -14 -27 -8 -4 5 -2 12 4 16 5 3 10 10 10 16 0
5 -8 1 -18 -8 -10 -10 -14 -21 -9 -24 5 -3 2 -9 -7 -12 -9 -4 -15 -1 -13 5 1
7 -2 12 -8 13 -5 0 -20 6 -31 13 -12 6 -24 9 -28 7 -3 -3 -2 1 4 7 17 20 11
37 -11 33 -16 -3 -19 0 -15 12 4 10 2 14 -7 10 -8 -3 -14 1 -14 8 0 8 7 11 16
7 13 -5 14 -3 4 10 -7 8 -10 18 -6 21 3 4 3 7 -2 7 -4 0 -14 -8 -22 -17 -13
-16 -13 -16 -4 4 7 14 8 24 1 28 -5 3 -10 1 -10 -5 0 -6 -4 -8 -10 -5 -5 3
-10 11 -10 16 0 6 4 8 9 5 8 -5 25 29 22 47 -2 11 12 8 33 -8 11 -8 16 -16 10
-16 -5 -1 -16 -2 -24 -3 -25 -2 -17 -29 10 -33 19 -2 22 -1 10 7 -8 5 -13 10
-10 11 3 0 13 2 23 4 23 4 21 -10 -5 -36 -13 -12 -17 -18 -9 -14 10 6 12 4 6
-5 -5 -8 -4 -11 3 -7 23 15 39 -4 36 -41 -1 -21 1 -31 5 -23 7 11 10 11 14 0
3 -8 5 -2 4 13 -1 15 -5 24 -9 22 -4 -3 -8 0 -8 5 0 6 8 11 18 11 12 1 10 4
-8 13 -28 14 -36 33 -20 52 8 9 6 14 -7 20 -16 6 -16 8 6 26 13 10 18 19 13
19 -6 0 -14 -5 -17 -10 -4 -6 -11 -7 -17 -4 -6 4 -1 12 13 20 l24 13 -24 9
c-20 7 -21 10 -8 15 10 4 17 14 17 22 0 10 5 13 12 9 7 -4 8 -3 4 5 -9 14 -26
5 -26 -15 0 -8 -5 -14 -11 -14 -5 0 -8 4 -5 8 3 5 -1 9 -9 9 -8 0 -12 -8 -10
-20 4 -15 2 -17 -11 -7 -10 9 -11 16 -4 25 5 6 6 15 2 19 -10 10 -10 56 0 50
16 -10 8 9 -9 22 -15 12 -15 13 -2 8 10 -3 19 1 22 10 4 10 1 13 -9 9 -9 -3
-14 1 -14 12 0 15 -2 16 -17 4 -10 -8 -14 -9 -10 -2 4 6 3 14 -3 18 -5 3 -10
20 -10 36 0 18 4 28 10 24 6 -4 7 -11 4 -17 -4 -7 -2 -8 4 -4 12 7 5 36 -9 36
-4 0 -6 7 -3 15 5 13 9 13 22 3 14 -12 14 -10 2 12 -10 21 -10 23 1 13 7 -7
18 -13 24 -13 5 0 4 4 -4 9 -8 5 -15 24 -16 43 0 18 -5 39 -9 47 -5 8 -5 12 0
9 5 -3 18 4 29 15 11 11 15 17 9 14 -6 -3 -11 0 -11 8 0 8 4 12 9 9 4 -3 8 0
8 7 0 8 4 9 13 0 10 -8 14 -7 14 4 0 8 -4 12 -9 9 -12 -8 -9 8 7 36 8 14 14
19 15 12 0 -7 5 -10 10 -7 7 4 7 12 0 25 -5 10 -7 27 -3 37 6 16 5 16 -10 4
-10 -8 -20 -11 -24 -7 -3 3 0 6 7 6 7 0 10 3 7 7 -4 3 -2 12 3 18 7 9 5 17 -7
26 -9 8 -14 9 -10 2 4 -6 3 -15 -3 -18 -6 -4 -10 -3 -9 2 1 4 0 10 -1 13 -6
16 -5 48 2 44 4 -3 8 0 8 5 0 6 -5 11 -11 11 -5 0 -7 5 -4 10 4 6 11 8 16 5 5
-3 6 1 3 9 -3 9 -10 13 -15 10 -5 -3 -6 2 -3 11 5 11 2 14 -10 9 -12 -5 -15
-2 -9 12 4 10 2 15 -4 11 -5 -3 -10 0 -10 8 0 13 3 13 18 -1 13 -12 19 -12 25
-3 4 7 3 10 -4 5 -17 -10 -20 18 -3 32 9 8 10 11 4 7 -7 -3 -13 -1 -13 4 0 6
5 11 11 11 5 0 7 6 3 13 -6 9 -4 9 8 -1 10 -8 19 -9 22 -3 4 5 2 12 -4 16 -6
4 -8 11 -5 16 4 5 -4 9 -17 9 -18 0 -20 -2 -8 -10 9 -6 10 -10 3 -10 -19 0
-26 20 -9 26 9 3 13 10 10 16 -3 5 -12 7 -20 4 -9 -3 -14 1 -14 12 0 15 -2 15
-10 2 -8 -12 -10 -12 -10 5 0 17 -2 17 -10 5 -7 -11 -10 -11 -10 -2 0 7 -5 10
-10 7 -6 -4 -7 -11 -4 -17 4 -7 2 -8 -4 -4 -6 4 -9 13 -5 21 6 18 -1 19 -29 4
-11 -6 -18 -7 -15 -2 4 5 0 10 -8 10 -8 0 -11 -5 -8 -10 4 -7 -1 -8 -12 -3
-15 5 -16 4 -5 -9 11 -13 11 -16 -1 -13 -8 2 -17 7 -20 11 -3 5 -9 1 -12 -8
-4 -9 -3 -14 2 -11 5 3 11 0 14 -8 3 -8 -1 -17 -9 -20 -9 -3 -12 -10 -9 -16 3
-6 -1 -7 -9 -4 -14 6 -21 -5 -17 -28 0 -4 -6 -5 -14 -2 -8 3 -13 11 -12 16 1
6 -4 13 -12 16 -9 3 -11 0 -6 -8 6 -9 4 -11 -5 -5 -10 6 -9 11 4 21 10 7 17
15 16 19 -1 4 2 10 6 13 4 4 4 1 -1 -7 -6 -10 -4 -12 4 -7 9 6 8 13 -5 27 -17
19 -29 26 -20 11 2 -4 -4 -13 -14 -20 -14 -9 -21 -9 -26 0 -5 7 -3 8 5 3 9 -5
9 -1 -1 14 -7 12 -14 17 -16 11 -2 -6 -8 -8 -13 -4 -5 3 -9 0 -9 -5 0 -6 5
-11 11 -11 5 0 7 -5 3 -12 -4 -6 -3 -8 3 -5 6 4 13 0 17 -8 9 -24 -12 -27 -28
-3 -9 12 -16 18 -16 12 0 -5 7 -20 16 -32 15 -21 14 -22 -11 -12 -14 6 -24 6
-21 1 11 -17 -19 -19 -37 -2 -14 11 -18 12 -15 2 2 -7 -3 -16 -11 -19 -8 -3
-11 0 -7 7 4 6 3 11 -3 11 -19 0 -19 -16 0 -28 10 -7 19 -8 19 -4 0 5 7 9 15
9 8 0 15 -4 15 -9 0 -4 -7 -8 -15 -8 -7 0 -19 -8 -25 -17 -10 -15 -11 -15 -6
-1 3 10 -2 18 -16 21 -16 5 -19 2 -15 -14 3 -10 1 -17 -4 -13 -12 7 -11 -3 1
-27 7 -13 7 -19 0 -19 -5 0 -10 7 -10 16 0 8 -4 13 -9 9 -5 -3 -12 -1 -16 4
-3 5 3 14 12 20 10 6 14 11 10 11 -5 0 0 15 11 34 18 30 18 34 4 29 -15 -6
-15 -5 -3 10 7 9 17 14 22 11 5 -3 9 -1 9 5 0 5 -9 9 -19 8 -11 0 -19 -5 -18
-10 1 -5 -4 -12 -12 -15 -9 -3 -11 0 -6 8 5 9 4 11 -4 6 -6 -4 -9 -12 -6 -17
4 -5 0 -9 -7 -9 -9 0 -9 -3 2 -10 16 -10 9 -13 -25 -11 -19 1 -19 0 1 -8 31
-13 38 -29 22 -48 -7 -9 -11 -18 -10 -20 10 -13 -7 -11 -18 2 -10 12 -9 16 4
21 20 8 21 21 1 21 -8 0 -12 -4 -10 -8 7 -10 -25 -20 -37 -12 -7 3 -8 1 -4 -5
4 -7 13 -12 20 -12 8 0 19 -7 26 -15 7 -8 16 -13 19 -10 4 2 8 -2 8 -9 0 -8
-7 -12 -15 -8 -11 4 -13 1 -7 -9 4 -8 5 -11 0 -7 -4 4 -13 0 -20 -9 -9 -12
-16 -13 -31 -5 -11 7 -13 12 -6 12 7 0 10 5 7 10 -4 7 -12 7 -25 0 -13 -7 -21
-7 -26 2 -4 7 -3 8 4 4 7 -4 12 -2 12 4 0 6 4 9 9 5 6 -3 9 4 8 15 -1 22 -13
27 -20 8 -2 -8 -8 -9 -13 -4 -5 5 -4 10 2 13 6 2 20 11 30 19 14 11 15 17 6
20 -6 3 -10 10 -6 15 3 5 1 9 -4 9 -6 0 -13 -7 -16 -16 -3 -8 -2 -12 3 -9 5 3
12 2 15 -3 2 -4 -4 -8 -14 -9 -12 -1 -20 7 -23 22 -2 14 0 22 4 19 5 -3 9 0 9
5 0 6 -6 11 -14 11 -18 0 -29 27 -14 36 7 5 8 2 3 -7 -8 -12 -6 -12 8 0 9 7
14 17 11 23 -3 5 -11 4 -19 -2 -10 -8 -19 -8 -33 -1 -11 6 -23 7 -27 3 -5 -4
-5 -2 -2 4 8 13 -16 37 -26 27 -4 -3 -7 -1 -7 6 0 7 -4 9 -10 6 -5 -3 -17 3
-27 14 -11 14 -21 17 -28 11 -8 -7 -12 -5 -12 5 0 8 4 12 8 10 3 -3 13 3 20
12 11 13 11 15 1 9 -8 -5 -22 -1 -34 11 -12 10 -18 12 -13 4 6 -11 4 -13 -10
-7 -15 5 -16 4 -5 -9 8 -9 9 -15 2 -15 -6 0 -15 7 -20 16 -8 15 -10 15 -15 0
-4 -10 -3 -15 2 -12 10 6 25 -24 16 -32 -3 -3 -5 0 -5 6 0 16 -27 15 -33 0 -2
-7 -3 -4 -1 7 3 20 3 20 -11 1 -15 -20 -20 -10 -9 18 3 9 11 13 18 9 7 -3 6
-1 -1 7 -16 18 -43 22 -40 7z m15 -19 c-7 -13 -11 -27 -9 -33 1 -5 -3 -4 -10
2 -10 10 -9 17 6 33 24 26 29 25 13 -2z m11 -64 c3 -4 -2 -4 -11 -1 -19 7 -25
-8 -8 -18 6 -4 8 -11 4 -16 -3 -5 -10 -7 -15 -4 -5 4 -14 -5 -21 -19 -6 -14
-18 -26 -27 -26 -14 0 -14 2 -1 10 8 5 11 10 5 10 -5 0 -3 6 5 13 19 16 25 47
8 47 -10 0 -9 3 1 9 15 10 49 6 60 -5z m451 -89 c0 -8 -5 -15 -11 -15 -5 0 -7
-5 -3 -12 4 -7 3 -8 -5 -4 -8 6 -9 12 -2 20 6 7 8 16 4 19 -3 4 -1 7 5 7 7 0
12 -7 12 -15z m146 -17 c4 -7 3 -8 -4 -4 -7 4 -12 3 -12 -3 0 -6 -8 -7 -17 -4
-17 7 -15 8 24 22 1 1 5 -4 9 -11z m-51 -47 c3 -6 -4 -9 -15 -8 -11 1 -20 5
-20 9 0 11 28 10 35 -1z m-100 -61 c2 -12 3 -21 1 -19 -3 2 -5 9 -6 14 -1 6
-7 19 -12 30 -8 15 -8 17 1 9 6 -6 13 -21 16 -34z m42 4 c-3 -3 -12 -4 -19 -1
-8 3 -5 6 6 6 11 1 17 -2 13 -5z m-721 -31 c-5 -15 -3 -14 10 2 14 16 16 17
11 3 -8 -22 2 -23 17 -2 11 14 13 14 27 -3 13 -16 12 -17 -2 -5 -14 10 -18 10
-22 -1 -3 -8 -17 -14 -31 -14 -29 0 -28 -1 -20 21 8 22 18 20 10 -1z m724 -2
c0 -6 -5 -13 -12 -17 -6 -4 -8 -3 -4 4 3 5 0 13 -6 15 -8 3 -6 6 5 6 9 1 17
-3 17 -8z m-151 -18 c0 -11 -3 -13 -6 -5 -2 6 -10 9 -15 6 -7 -4 -8 -2 -4 4
11 18 26 14 25 -5z m71 6 c0 -15 -18 -19 -23 -6 -3 8 1 14 9 14 8 0 14 -4 14
-8z m54 -18 c3 -5 -2 -15 -12 -22 -15 -13 -16 -12 -3 4 12 15 11 17 -7 17 -15
0 -19 -5 -16 -22 4 -21 4 -21 -5 -3 -4 11 -7 23 -4 28 6 10 41 9 47 -2z m-65
-20 c10 -7 7 -9 -12 -8 -14 1 -23 5 -20 10 6 9 15 9 32 -2z m496 -99 c-3 -3
-11 0 -18 7 -9 10 -8 11 6 5 10 -3 15 -9 12 -12z m49 -29 c3 -8 2 -22 -4 -31
-9 -16 -9 -15 -10 1 0 10 -4 16 -8 13 -4 -2 -8 6 -8 19 0 25 20 24 30 -2z
m-50 -146 c-5 -28 -12 -33 -27 -18 -6 7 -7 12 -2 11 23 -5 28 1 11 13 -16 12
-16 13 2 13 14 0 19 -6 16 -19z m-27 -92 c0 -8 -4 -15 -8 -15 -5 0 -6 -6 -3
-14 9 -23 -10 -25 -36 -4 -14 11 -18 19 -10 18 24 -4 40 -1 39 8 -2 14 1 22 9
22 5 0 9 -7 9 -15z m-31 -218 c8 3 14 0 14 -7 0 -6 -4 -8 -10 -5 -5 3 -10 1
-10 -4 0 -6 6 -11 13 -12 9 0 9 -2 0 -6 -21 -8 4 -44 25 -36 14 5 14 3 -3 -14
-11 -11 -21 -19 -23 -18 -3 3 -9 29 -11 48 -1 4 -6 7 -12 7 -5 0 -7 -5 -3 -12
5 -7 3 -8 -6 -3 -10 6 -10 11 4 20 14 11 15 13 1 18 -9 4 -12 13 -8 24 4 9 8
12 10 6 3 -7 11 -9 19 -6z m50 -47 c3 0 3 8 0 17 -6 15 -5 15 13 -1 17 -16 34
-22 66 -26 6 0 2 -5 -8 -11 -15 -9 -16 -13 -5 -27 11 -14 9 -14 -15 1 -27 17
-53 15 -42 -4 4 -5 -3 -9 -15 -9 -20 0 -21 1 -3 24 10 13 23 21 28 18 6 -3 6
-1 2 4 -11 12 -40 11 -50 -1 -4 -5 -5 4 -3 20 6 42 6 42 16 18 5 -13 12 -23
16 -23z m44 -84 c0 -3 -4 -8 -10 -11 -5 -3 -10 -1 -10 4 0 6 5 11 10 11 6 0
10 -2 10 -4z m-1906 -52 c3 -8 2 -12 -4 -9 -6 3 -10 10 -10 16 0 14 7 11 14
-7z m-18 -60 c-5 -12 -2 -15 11 -10 13 5 15 4 7 -4 -11 -11 -33 -18 -62 -19
-7 -1 -11 -5 -7 -11 3 -5 13 -7 23 -4 16 5 16 5 0 -6 -23 -14 -24 -14 -49 11
-19 19 -19 20 -2 15 12 -4 27 3 43 18 29 29 45 33 36 10z m1887 -11 c-5 -12
-3 -14 7 -8 9 6 11 4 5 -4 -5 -9 -11 -9 -17 -3 -6 6 -7 15 -4 21 11 17 16 13
9 -6z m-19 -29 c3 -8 2 -12 -4 -9 -6 3 -10 10 -10 16 0 14 7 11 14 -7z m36 -8
c0 -3 -4 -8 -10 -11 -5 -3 -10 -1 -10 4 0 6 5 11 10 11 6 0 10 -2 10 -4z
m-2175 -311 c6 0 11 -10 11 -22 1 -12 -2 -20 -7 -17 -4 2 -5 12 -2 22 6 15 5
15 -10 3 -9 -7 -17 -11 -17 -8 0 3 -3 13 -7 23 -5 13 -3 15 8 8 8 -5 19 -9 24
-9z m-130 -95 c3 -5 1 -10 -4 -10 -6 0 -11 5 -11 10 0 6 2 10 4 10 3 0 8 -4
11 -10z m2390 0 c3 -6 -1 -7 -9 -4 -18 7 -21 14 -7 14 6 0 13 -4 16 -10z m0
-40 c3 -5 1 -10 -4 -10 -6 0 -11 5 -11 10 0 6 2 10 4 10 3 0 8 -4 11 -10z
m-2371 -116 c4 -10 2 -13 -6 -8 -7 5 -9 2 -5 -9 4 -11 2 -14 -8 -11 -11 5 -12
10 -2 25 14 23 13 23 21 3z m2422 -49 c-2 -7 0 -17 6 -23 11 -11 3 -32 -13
-32 -6 0 -8 4 -4 9 3 6 -3 14 -12 20 -17 9 -17 10 -1 16 10 4 14 13 11 22 -5
11 -3 14 6 9 7 -5 10 -14 7 -21z m-2476 -149 c0 -3 -4 -8 -10 -11 -5 -3 -10
-1 -10 4 0 6 5 11 10 11 6 0 10 -2 10 -4z m-99 -193 c13 -15 12 -15 -10 -3
-22 11 -23 11 -17 -6 5 -15 4 -16 -5 -7 -11 11 -5 33 10 33 5 0 15 -7 22 -17z
m-87 -14 c-4 -7 0 -9 14 -5 12 4 24 2 28 -6 12 -18 13 -58 2 -51 -6 3 -8 13
-5 22 2 11 -2 17 -13 17 -9 0 -17 -6 -17 -13 0 -7 5 -9 11 -6 6 4 5 -1 -3 -10
-9 -11 -10 -17 -2 -17 16 0 13 -17 -5 -24 -8 -3 -12 -2 -9 4 3 6 3 15 -1 22
-16 25 -14 78 2 78 3 0 2 -5 -2 -11z m106 -19 c-8 -5 -17 -7 -21 -5 -3 3 -6
-6 -6 -20 0 -14 3 -23 6 -20 11 6 34 -12 37 -29 1 -9 -2 -14 -7 -10 -5 3 -6
10 -3 16 5 7 2 9 -8 5 -9 -3 -21 0 -28 6 -10 9 -12 8 -7 -4 7 -22 -29 -14 -38
8 -4 13 -3 14 10 3 14 -11 19 -7 16 13 0 4 4 7 10 7 5 0 7 5 4 10 -9 15 1 25
27 27 17 2 19 0 8 -7z m2796 -556 c1 -9 0 -13 -4 -10 -3 4 -7 14 -8 22 -1 9 0
13 4 10 3 -4 7 -14 8 -22z m-2822 -23 c-10 -17 -22 -27 -27 -24 -4 3 2 16 14
29 30 32 34 30 13 -5z m2736 5 c0 -2 -8 -10 -17 -17 -16 -13 -17 -12 -4 4 13
16 21 21 21 13z m30 -47 c0 -5 4 -8 9 -4 5 3 12 1 15 -4 5 -8 -15 -8 -34 -1
-3 1 -9 2 -13 1 -5 -1 -6 3 -2 9 8 13 25 13 25 -1z m-74 -165 c-5 -12 -1 -14
16 -8 20 6 21 5 9 -10 -10 -12 -17 -13 -27 -5 -11 9 -9 39 3 39 3 0 2 -7 -1
-16z m-446 -254 c0 -5 -2 -10 -4 -10 -3 0 -8 5 -11 10 -3 6 -1 10 4 10 6 0 11
-4 11 -10z m20 -166 c0 -8 -19 -13 -24 -6 -3 5 1 9 9 9 8 0 15 -2 15 -3z
m-1996 -12 c3 -5 -1 -9 -9 -9 -8 0 -15 4 -15 9 0 4 4 8 9 8 6 0 12 -4 15 -8z
m1945 -48 c4 3 8 -1 8 -9 0 -8 -4 -15 -9 -15 -4 0 -8 2 -8 4 0 2 -2 10 -3 18
-2 7 -2 10 0 5 3 -4 8 -5 12 -3z m-2029 -54 c0 -5 -5 -10 -11 -10 -5 0 -7 5
-4 10 3 6 8 10 11 10 2 0 4 -4 4 -10z m92 3 c-6 -2 -10 -9 -7 -14 4 -5 -1 -6
-9 -3 -9 3 -16 1 -16 -5 0 -6 -4 -11 -10 -11 -5 0 -10 4 -10 8 0 10 39 31 55
31 6 -1 4 -3 -3 -6z m1899 -130 c13 -16 12 -17 -3 -4 -10 7 -18 15 -18 17 0 8
8 3 21 -13z m-2185 -191 c1 -7 0 -8 -3 -2 -2 5 -9 8 -14 4 -5 -3 -9 0 -9 6 0
15 23 7 26 -8z m2103 -56 c9 -10 7 -17 -6 -27 -16 -13 -17 -12 -5 3 8 10 9 19
3 22 -5 3 -12 0 -14 -6 -3 -8 -6 -6 -6 5 -1 20 12 22 28 3z m31 -26 c0 -5 -5
-10 -11 -10 -5 0 -7 5 -4 10 3 6 8 10 11 10 2 0 4 -4 4 -10z m-9 -43 c-10 -9
-11 -8 -5 6 3 10 9 15 12 12 3 -3 0 -11 -7 -18z m-2267 5 c3 -5 -1 -9 -9 -9
-8 0 -12 4 -9 9 3 4 7 8 9 8 2 0 6 -4 9 -8z m2220 -47 c-4 -8 -11 -12 -16 -9
-6 4 -5 10 3 15 19 12 19 11 13 -6z m-267 -159 c-3 -7 -1 -18 4 -23 5 -5 12
-23 15 -39 3 -16 3 -26 -1 -23 -3 4 -8 17 -10 29 -3 13 -9 28 -14 33 -9 9 -4
37 6 37 3 0 3 -6 0 -14z m-37 -16 c0 -5 -5 -10 -11 -10 -5 0 -7 5 -4 10 3 6 8
10 11 10 2 0 4 -4 4 -10z m-15 -28 c-3 -3 -11 0 -18 7 -9 10 -8 11 6 5 10 -3
15 -9 12 -12z m-1935 -97 c-8 -10 -7 -16 5 -22 16 -10 11 -43 -7 -43 -5 0 -7
4 -3 9 3 5 1 12 -3 15 -5 3 -8 18 -6 33 3 36 2 35 14 28 8 -5 8 -11 0 -20z
m36 -69 c0 -14 -5 -21 -9 -17 -4 4 -5 15 -1 24 9 24 12 21 10 -7z m-26 -20 c0
-11 -19 -15 -25 -6 -3 5 1 10 9 10 9 0 16 -2 16 -4z m180 -27 c0 -5 5 -7 12
-3 6 4 8 3 4 -4 -3 -6 1 -15 10 -20 12 -6 15 -18 12 -36 -5 -23 -3 -24 10 -14
13 11 14 11 7 -1 -6 -11 -4 -13 8 -8 12 4 15 1 11 -11 -5 -14 -3 -13 10 2 20
25 21 8 1 -18 -8 -11 -15 -14 -15 -8 0 17 -42 32 -57 20 -7 -6 -14 -5 -19 3
-4 8 -3 9 4 5 18 -11 14 5 -5 19 -13 9 -13 14 -3 20 9 6 11 4 5 -5 -6 -10 -4
-12 9 -7 12 5 15 3 10 -6 -4 -6 -3 -8 1 -4 11 9 16 37 7 35 -4 -1 -20 6 -37
15 -26 16 -27 17 -5 11 22 -6 23 -5 11 10 -9 10 -10 16 -2 16 6 0 11 -5 11
-11z m-25 -38 c3 -5 0 -13 -6 -17 -7 -4 -9 -3 -5 4 3 5 0 13 -6 15 -9 4 -10 6
-1 6 6 1 14 -3 18 -8z m1515 -40 c-15 -29 -29 -35 -27 -12 0 11 5 17 9 15 4
-3 8 0 8 5 0 6 5 11 10 11 7 0 7 -6 0 -19z m-386 -43 c-3 -4 -9 -8 -15 -8 -5
0 -9 4 -9 8 0 5 7 9 15 9 8 0 12 -4 9 -9z m-12 -22 c3 3 9 0 14 -7 5 -8 3 -10
-6 -4 -10 6 -12 4 -7 -8 3 -10 2 -17 -3 -17 -6 0 -10 7 -10 15 0 8 -4 15 -9
15 -5 0 -12 8 -15 17 -6 16 -6 16 12 0 10 -9 21 -14 24 -11z m-52 -21 c0 -2
-9 -3 -19 -2 -11 0 -18 5 -15 9 4 6 34 0 34 -7z m-660 1 c0 -2 -8 -10 -17 -17
-16 -13 -17 -12 -4 4 13 16 21 21 21 13z m700 -41 c0 -5 -5 -3 -10 5 -5 8 -10
10 -10 4 0 -6 -6 -11 -14 -11 -11 0 -12 5 -4 23 10 22 12 22 24 6 7 -9 13 -21
14 -27z m-576 19 c3 -8 2 -12 -4 -9 -6 3 -10 10 -10 16 0 14 7 11 14 -7z m311
-24 c3 -5 1 -10 -4 -10 -6 0 -11 5 -11 10 0 6 2 10 4 10 3 0 8 -4 11 -10z
m418 -35 c-3 -9 -8 -14 -10 -11 -3 3 -2 9 2 15 9 16 15 13 8 -4z"/>
<path d="M2756 4792 c-3 -5 1 -9 9 -9 8 0 12 4 9 9 -3 4 -7 8 -9 8 -2 0 -6 -4
-9 -8z"/>
<path d="M3635 4120 c3 -5 8 -10 11 -10 2 0 4 5 4 10 0 6 -5 10 -11 10 -5 0
-7 -4 -4 -10z"/>
<path d="M2959 4905 c-1 -3 -2 -8 -3 -12 -1 -5 -5 -14 -10 -21 -10 -17 10 -41
32 -37 9 1 26 -9 37 -22 20 -24 22 -24 35 -7 8 10 10 15 3 11 -12 -8 -37 26
-27 36 3 3 -2 4 -13 3 -17 -3 -50 31 -45 47 1 4 0 7 -3 7 -3 0 -6 -2 -6 -5z
m21 -44 c7 -15 7 -19 -5 -17 -20 3 -28 13 -20 25 9 15 13 14 25 -8z"/>
<path d="M2710 4840 c-9 -6 -10 -10 -3 -10 6 0 15 5 18 10 8 12 4 12 -15 0z"/>
<path d="M3155 4841 c-3 -5 -2 -12 3 -15 5 -3 9 1 9 9 0 17 -3 19 -12 6z"/>
<path d="M2530 4819 c0 -5 5 -7 10 -4 6 3 10 8 10 11 0 2 -4 4 -10 4 -5 0 -10
-5 -10 -11z"/>
<path d="M3370 4819 c0 -5 5 -7 10 -4 6 3 10 8 10 11 0 2 -4 4 -10 4 -5 0 -10
-5 -10 -11z"/>
<path d="M2573 4803 c0 -8 6 -9 19 -2 10 5 18 11 18 12 0 2 -8 3 -18 3 -10 0
-19 -6 -19 -13z"/>
<path d="M3113 4807 c0 -8 6 -14 14 -14 9 0 10 4 2 14 -6 7 -12 13 -14 13 -1
0 -2 -6 -2 -13z"/>
<path d="M3441 4804 c0 -11 3 -14 6 -6 3 7 2 16 -1 19 -3 4 -6 -2 -5 -13z"/>
<path d="M3768 4767 c7 -8 9 -17 5 -20 -3 -4 -1 -7 5 -7 18 0 14 27 -4 34 -13
5 -14 4 -6 -7z"/>
<path d="M3503 4753 c-3 -7 -10 -10 -16 -6 -6 4 -7 1 -2 -7 6 -10 11 -10 20 3
7 9 14 14 17 11 4 -3 8 -1 12 4 3 5 -2 9 -10 9 -9 0 -18 -6 -21 -14z"/>
<path d="M2646 4722 c-3 -5 1 -9 9 -9 8 0 12 4 9 9 -3 4 -7 8 -9 8 -2 0 -6 -4
-9 -8z"/>
<path d="M2630 4683 c0 -6 8 -17 18 -24 16 -13 16 -13 2 6 -8 11 -16 22 -17
24 -2 2 -3 0 -3 -6z"/>
<path d="M3150 4679 c0 -5 5 -7 10 -4 6 3 10 8 10 11 0 2 -4 4 -10 4 -5 0 -10
-5 -10 -11z"/>
<path d="M2396 4662 c-3 -5 1 -9 9 -9 8 0 12 4 9 9 -3 4 -7 8 -9 8 -2 0 -6 -4
-9 -8z"/>
<path d="M2550 4656 c0 -2 8 -10 18 -17 15 -13 16 -12 3 4 -13 16 -21 21 -21
13z"/>
<path d="M3135 4641 c2 -12 9 -29 15 -35 5 -7 7 -16 3 -19 -3 -4 -2 -7 3 -7 5
0 15 9 21 19 10 15 9 22 -2 31 -8 7 -15 9 -15 4 0 -4 -7 1 -15 12 -14 18 -14
18 -10 -5z m39 -32 c-3 -5 -10 -7 -15 -3 -5 3 -7 10 -3 15 3 5 10 7 15 3 5 -3
7 -10 3 -15z"/>
<path d="M2610 4620 c-9 -6 -10 -10 -3 -10 6 0 15 5 18 10 8 12 4 12 -15 0z"/>
<path d="M2449 4437 c6 -8 7 -18 3 -22 -4 -5 -1 -5 6 -1 10 6 10 11 1 22 -6 8
-14 14 -16 14 -3 0 0 -6 6 -13z"/>
<path d="M3800 4440 c-9 -6 -10 -10 -3 -10 6 0 15 5 18 10 8 12 4 12 -15 0z"/>
<path d="M2490 4400 c0 -5 5 -10 11 -10 5 0 7 5 4 10 -3 6 -8 10 -11 10 -2 0
-4 -4 -4 -10z"/>
<path d="M3815 4400 c3 -5 8 -10 11 -10 2 0 4 5 4 10 0 6 -5 10 -11 10 -5 0
-7 -4 -4 -10z"/>
<path d="M3770 4379 c0 -4 7 -12 15 -19 13 -11 14 -10 9 5 -5 13 -4 16 4 11 7
-4 12 -3 12 3 0 5 -9 9 -20 8 -11 -1 -20 -4 -20 -8z"/>
<path d="M2459 4373 c-1 -5 -1 -11 0 -15 2 -12 -14 -9 -27 4 -8 8 -15 8 -26
-2 -20 -16 -10 -33 12 -21 11 6 24 6 34 0 11 -6 18 -4 22 6 3 8 1 15 -5 15 -6
0 -7 5 -4 10 3 6 4 10 1 10 -3 0 -7 -3 -7 -7z m-29 -17 c0 -2 -7 -7 -16 -10
-8 -3 -12 -2 -9 4 6 10 25 14 25 6z"/>
<path d="M3855 4371 c-3 -5 -2 -12 3 -15 5 -3 9 1 9 9 0 17 -3 19 -12 6z"/>
<path d="M3795 4331 c-3 -5 -2 -12 3 -15 5 -3 9 1 9 9 0 17 -3 19 -12 6z"/>
<path d="M2425 4280 c-3 -6 1 -7 9 -4 18 7 21 14 7 14 -6 0 -13 -4 -16 -10z"/>
<path d="M3716 4221 c-3 -5 1 -11 9 -14 9 -4 12 -1 8 9 -6 16 -10 17 -17 5z"/>
<path d="M2403 4155 c0 -8 4 -12 9 -9 5 3 6 10 3 15 -9 13 -12 11 -12 -6z"/>
<path d="M3710 4140 c0 -4 7 -7 15 -6 23 3 26 12 5 13 -11 1 -20 -2 -20 -7z"/>
<path d="M3695 4099 c-4 -6 -5 -12 -2 -15 2 -3 7 2 10 11 7 17 1 20 -8 4z"/>
<path d="M3719 4093 c-13 -16 -12 -17 4 -4 16 13 21 21 13 21 -2 0 -10 -8 -17
-17z"/>
<path d="M2243 4065 c0 -8 4 -12 9 -9 5 3 6 10 3 15 -9 13 -12 11 -12 -6z"/>
<path d="M3739 4028 c0 -2 -2 -12 -4 -23 -1 -11 -6 -27 -9 -36 -8 -20 14 -31
35 -18 12 7 12 9 -1 10 -8 1 -19 1 -23 0 -5 -1 -6 3 -2 8 3 6 12 8 20 4 8 -3
15 0 15 7 0 6 -4 9 -9 6 -5 -3 -11 3 -14 14 -3 10 0 21 7 24 7 3 7 5 -1 5 -7
1 -13 0 -14 -1z"/>
<path d="M2010 3955 c5 -7 6 -16 2 -21 -4 -5 -3 -5 2 -1 15 12 15 34 0 34 -9
0 -11 -4 -4 -12z"/>
<path d="M3780 3966 c0 -2 7 -7 16 -10 8 -3 12 -2 9 4 -6 10 -25 14 -25 6z"/>
<path d="M1740 3936 c0 -2 7 -7 16 -10 8 -3 12 -2 9 4 -6 10 -25 14 -25 6z"/>
<path d="M1716 3913 c-6 -14 -5 -15 5 -6 7 7 10 15 7 18 -3 3 -9 -2 -12 -12z"/>
<path d="M2083 3923 c-15 -5 -17 -23 -4 -23 5 0 11 7 15 15 3 8 4 15 3 14 -1
0 -8 -3 -14 -6z"/>
<path d="M1990 3860 c0 -5 5 -10 10 -10 6 0 10 5 10 10 0 6 -4 10 -10 10 -5 0
-10 -4 -10 -10z"/>
<path d="M1738 3853 c6 -2 10 -8 8 -12 -3 -4 1 -8 9 -8 11 0 12 4 4 14 -6 7
-17 13 -23 12 -7 0 -6 -2 2 -6z"/>
<path d="M3788 3823 c7 -3 16 -2 19 1 4 3 -2 6 -13 5 -11 0 -14 -3 -6 -6z"/>
<path d="M3816 3813 c-6 -14 -5 -15 5 -6 7 7 10 15 7 18 -3 3 -9 -2 -12 -12z"/>
<path d="M1754 3745 c1 -13 6 -28 10 -32 5 -4 6 -3 3 4 -4 6 -1 14 5 16 10 4
10 6 0 6 -7 1 -11 5 -7 10 3 5 1 12 -3 15 -5 3 -8 -6 -8 -19z"/>
<path d="M3795 3760 c3 -5 8 -10 11 -10 2 0 4 5 4 10 0 6 -5 10 -11 10 -5 0
-7 -4 -4 -10z"/>
<path d="M3746 3732 c-6 -10 5 -26 22 -30 10 -2 10 2 2 18 -12 22 -16 24 -24
12z"/>
<path d="M3793 3657 c5 -15 35 -17 46 -3 8 9 3 12 -20 12 -16 0 -28 -4 -26 -9z"/>
<path d="M1640 3626 c0 -2 7 -7 16 -10 8 -3 12 -2 9 4 -6 10 -25 14 -25 6z"/>
<path d="M3886 3614 c-11 -7 -24 -11 -30 -7 -6 3 0 -6 13 -20 24 -27 26 -27
61 1 3 3 -6 1 -20 -3 -25 -8 -25 -7 -7 13 11 12 26 18 35 15 10 -4 14 -3 11 1
-12 13 -45 14 -63 0z"/>
<path d="M1710 3598 c0 -4 4 -8 9 -8 6 0 12 4 15 8 3 5 -1 9 -9 9 -8 0 -15 -4
-15 -9z"/>
<path d="M1494 3582 c3 -6 -2 -15 -11 -21 -10 -6 -13 -11 -7 -11 20 0 37 27
23 36 -7 4 -9 3 -5 -4z"/>
<path d="M1614 3578 c-4 -7 -3 -10 1 -5 5 4 20 -3 34 -15 l26 -23 -24 28 c-28
31 -28 31 -37 15z"/>
<path d="M3955 3561 c-3 -5 -2 -12 3 -15 5 -3 9 1 9 9 0 17 -3 19 -12 6z"/>
<path d="M1430 3520 c0 -5 5 -10 11 -10 5 0 7 5 4 10 -3 6 -8 10 -11 10 -2 0
-4 -4 -4 -10z"/>
<path d="M1470 3519 c0 -5 5 -7 10 -4 6 3 10 8 10 11 0 2 -4 4 -10 4 -5 0 -10
-5 -10 -11z"/>
<path d="M1540 3496 c0 -2 7 -7 16 -10 8 -3 12 -2 9 4 -6 10 -25 14 -25 6z"/>
<path d="M1583 3481 c2 -27 32 -47 44 -29 12 20 12 38 1 38 -6 0 -8 -6 -5 -14
10 -27 -7 -26 -24 1 -17 26 -18 26 -16 4z"/>
<path d="M1427 3459 c7 -7 15 -10 18 -7 3 3 -2 9 -12 12 -14 6 -15 5 -6 -5z"/>
<path d="M3905 3460 c-3 -6 1 -7 9 -4 18 7 21 14 7 14 -6 0 -13 -4 -16 -10z"/>
<path d="M3865 3447 c3 -7 15 -13 26 -14 24 -2 23 0 -8 16 -18 9 -22 9 -18 -2z"/>
<path d="M1455 3421 c-3 -5 -2 -12 3 -15 5 -3 9 1 9 9 0 17 -3 19 -12 6z"/>
<path d="M1493 3399 c-2 -23 3 -25 10 -4 4 8 3 16 -1 19 -4 3 -9 -4 -9 -15z"/>
<path d="M3875 3410 c3 -5 8 -10 11 -10 2 0 4 5 4 10 0 6 -5 10 -11 10 -5 0
-7 -4 -4 -10z"/>
<path d="M3910 3400 c-13 -8 -12 -10 3 -10 9 0 17 5 17 10 0 12 -1 12 -20 0z"/>
<path d="M1435 3380 c-3 -5 -1 -10 4 -10 6 0 11 5 11 10 0 6 -2 10 -4 10 -3 0
-8 -4 -11 -10z"/>
<path d="M3940 3386 c0 -2 7 -6 15 -10 8 -3 15 -1 15 4 0 6 -7 10 -15 10 -8 0
-15 -2 -15 -4z"/>
<path d="M1410 3340 c0 -5 5 -10 11 -10 5 0 7 5 4 10 -3 6 -8 10 -11 10 -2 0
-4 -4 -4 -10z"/>
<path d="M1314 3322 c4 -3 14 -7 22 -8 9 -1 13 0 10 4 -4 3 -14 7 -22 8 -9 1
-13 0 -10 -4z"/>
<path d="M3990 3321 c0 -6 4 -13 10 -16 6 -3 7 1 4 9 -7 18 -14 21 -14 7z"/>
<path d="M1298 3298 c5 -5 16 -8 23 -6 8 3 3 7 -10 11 -17 4 -21 3 -13 -5z"/>
<path d="M1370 3300 c0 -5 5 -10 11 -10 5 0 7 5 4 10 -3 6 -8 10 -11 10 -2 0
-4 -4 -4 -10z"/>
<path d="M1472 3301 c2 -7 7 -12 11 -12 12 1 9 15 -3 20 -7 2 -11 -2 -8 -8z"/>
<path d="M3945 3301 c-3 -5 0 -13 6 -17 7 -4 9 -3 5 4 -3 6 2 13 11 15 16 4
16 5 1 6 -9 0 -19 -3 -23 -8z"/>
<path d="M3976 3278 c3 -5 10 -6 15 -3 13 9 11 12 -6 12 -8 0 -12 -4 -9 -9z"/>
<path d="M1298 3272 c-16 -2 -28 -7 -28 -12 0 -5 7 -7 15 -4 11 5 14 2 9 -12
-6 -18 -6 -18 8 0 12 15 17 16 23 6 5 -8 4 -11 -2 -7 -5 3 -10 0 -10 -7 0 -8
6 -12 13 -9 12 4 14 38 3 45 -2 2 -16 2 -31 0z"/>
<path d="M3857 3235 c-4 -8 -3 -16 1 -19 4 -3 9 4 9 15 2 23 -3 25 -10 4z"/>
<path d="M1360 3200 c-9 -6 -10 -10 -3 -10 6 0 15 5 18 10 8 12 4 12 -15 0z"/>
<path d="M1195 3151 c-3 -5 -2 -12 3 -15 5 -3 9 1 9 9 0 17 -3 19 -12 6z"/>
<path d="M1233 3129 c-2 -23 3 -25 10 -4 4 8 3 16 -1 19 -4 3 -9 -4 -9 -15z"/>
<path d="M1253 3116 c-4 -5 -1 -6 5 -2 5 3 12 1 14 -4 2 -7 9 -6 21 2 16 12
15 13 -9 13 -14 0 -28 -4 -31 -9z"/>
<path d="M1337 3119 c7 -7 15 -10 18 -7 3 3 -2 9 -12 12 -14 6 -15 5 -6 -5z"/>
<path d="M1373 3109 c-2 -23 3 -25 10 -4 4 8 3 16 -1 19 -4 3 -9 -4 -9 -15z"/>
<path d="M1310 3100 c0 -5 5 -10 10 -10 6 0 10 5 10 10 0 6 -4 10 -10 10 -5 0
-10 -4 -10 -10z"/>
<path d="M3815 3100 c-6 -10 44 -35 53 -26 2 3 -7 8 -22 12 -14 3 -23 10 -20
15 3 5 3 9 0 9 -3 0 -8 -5 -11 -10z"/>
<path d="M1243 3088 c-14 -23 -11 -34 9 -34 17 0 17 2 4 11 -12 9 -13 14 -4
23 7 7 9 12 6 12 -4 0 -10 -6 -15 -12z"/>
<path d="M1340 3078 c0 -6 3 -8 7 -5 3 4 12 -1 20 -11 13 -15 13 -15 3 6 -11
23 -30 30 -30 10z"/>
<path d="M1324 3032 c-13 -8 -15 -44 -2 -36 5 4 7 9 4 12 -3 3 -1 11 5 19 13
14 10 17 -7 5z"/>
<path d="M1274 2920 c0 -13 4 -16 10 -10 7 7 7 13 0 20 -6 6 -10 3 -10 -10z"/>
<path d="M1263 2884 c14 -17 15 -23 5 -28 -9 -4 -9 -5 2 -5 30 2 39 -1 43 -18
4 -17 5 -17 6 0 0 10 -6 20 -14 23 -8 4 -13 10 -10 15 3 4 12 6 20 2 8 -3 15
0 15 5 0 19 -18 23 -32 8 -11 -12 -16 -12 -33 2 -20 17 -20 17 -2 -4z"/>
<path d="M1235 2851 c-3 -5 -2 -12 3 -15 5 -3 9 1 9 9 0 17 -3 19 -12 6z"/>
<path d="M1271 2831 c-8 -5 -16 -20 -18 -33 -2 -17 -1 -19 6 -8 5 8 7 18 5 22
-3 4 2 8 10 8 9 0 16 5 16 10 0 12 -1 12 -19 1z"/>
<path d="M1266 2774 c-9 -24 -2 -26 12 -4 7 11 8 20 3 20 -5 0 -12 -7 -15 -16z"/>
<path d="M3930 2722 c0 -4 9 -13 20 -19 14 -9 21 -10 26 -1 4 7 3 8 -5 4 -6
-4 -14 0 -17 8 -6 16 -24 22 -24 8z"/>
<path d="M1096 2627 c3 -10 9 -15 12 -12 3 3 0 11 -7 18 -10 9 -11 8 -5 -6z"/>
<path d="M3990 2630 c0 -5 5 -10 10 -10 6 0 10 5 10 10 0 6 -4 10 -10 10 -5 0
-10 -4 -10 -10z"/>
<path d="M3975 2601 c-5 -10 15 -16 38 -12 5 1 6 -9 3 -21 -3 -13 -3 -17 0
-10 3 6 11 9 17 5 7 -4 5 4 -4 17 -18 27 -43 37 -54 21z"/>
<path d="M1180 2560 c-12 -7 -10 -9 7 -7 12 0 19 5 17 9 -6 10 -6 10 -24 -2z"/>
<path d="M1188 2533 c6 -2 9 -10 6 -15 -4 -7 -2 -8 5 -4 13 9 5 26 -12 25 -9
0 -8 -2 1 -6z"/>
<path d="M1155 2521 c-3 -5 -2 -12 3 -15 5 -3 9 1 9 9 0 17 -3 19 -12 6z"/>
<path d="M4039 2513 c-13 -16 -12 -17 4 -4 9 7 17 15 17 17 0 8 -8 3 -21 -13z"/>
<path d="M1228 2463 c7 -3 16 -2 19 1 4 3 -2 6 -13 5 -11 0 -14 -3 -6 -6z"/>
<path d="M1227 2436 c-4 -10 -13 -13 -24 -10 -15 5 -15 4 -3 -4 9 -7 19 -7 26
-2 18 16 24 0 7 -20 -9 -10 -23 -16 -32 -13 -13 4 -13 3 1 -6 9 -6 15 -20 13
-31 -4 -21 11 -28 17 -8 2 6 10 8 17 4 9 -6 8 -11 -4 -20 -15 -11 -15 -12 2
-12 14 0 19 8 19 32 0 18 -3 31 -7 28 -4 -2 -10 3 -13 12 -3 8 -2 13 3 10 5
-3 14 0 20 8 9 10 8 16 -4 26 -8 7 -15 9 -15 4 0 -5 -4 -3 -9 4 -7 11 -9 11
-14 -2z m38 -15 c3 -5 2 -12 -3 -15 -5 -3 -9 1 -9 9 0 17 3 19 12 6z m-28 -38
c-4 -3 0 -11 9 -17 13 -10 13 -12 -4 -12 -12 0 -18 6 -17 16 5 21 4 20 12 20
3 0 3 -3 0 -7z"/>
<path d="M1154 2369 c-3 -6 -2 -15 3 -20 5 -5 9 -1 9 11 0 23 -2 24 -12 9z"/>
<path d="M1199 2318 c-5 -18 -6 -38 -1 -34 7 8 12 36 6 36 -2 0 -4 -1 -5 -2z"/>
<path d="M1160 2300 c-9 -6 -10 -10 -3 -10 6 0 15 5 18 10 8 12 4 12 -15 0z"/>
<path d="M1266 2252 c-3 -6 -1 -14 5 -17 15 -10 25 3 12 16 -7 7 -13 7 -17 1z"/>
<path d="M1214 2153 c2 -9 8 -19 15 -21 9 -3 7 -9 -5 -23 -9 -10 -13 -19 -8
-19 5 0 17 12 27 26 10 13 15 24 10 23 -20 -3 -34 2 -28 10 3 5 1 12 -4 15 -5
4 -8 -2 -7 -11z"/>
<path d="M1144 2088 c3 -15 26 -23 26 -8 0 6 -4 9 -9 6 -5 -4 -12 -1 -14 4 -3
6 -4 5 -3 -2z"/>
<path d="M1116 2058 c3 -5 10 -6 15 -3 13 9 11 12 -6 12 -8 0 -12 -4 -9 -9z"/>
<path d="M1175 2059 c-4 -6 -5 -12 -2 -15 2 -3 7 2 10 11 7 17 1 20 -8 4z"/>
<path d="M1139 2033 c-13 -16 -12 -17 4 -4 9 7 17 15 17 17 0 8 -8 3 -21 -13z"/>
<path d="M1175 2020 c3 -5 8 -10 11 -10 2 0 4 5 4 10 0 6 -5 10 -11 10 -5 0
-7 -4 -4 -10z"/>
<path d="M1210 2021 c0 -6 4 -13 10 -16 6 -3 7 1 4 9 -7 18 -14 21 -14 7z"/>
<path d="M3975 2000 c3 -5 8 -10 11 -10 2 0 4 5 4 10 0 6 -5 10 -11 10 -5 0
-7 -4 -4 -10z"/>
<path d="M3990 1972 c0 -5 9 -17 20 -27 11 -10 20 -13 20 -8 0 6 -7 14 -16 17
-8 3 -12 10 -9 16 3 5 1 10 -4 10 -6 0 -11 -4 -11 -8z"/>
<path d="M3917 1813 c-11 -11 -8 -20 7 -20 8 0 12 6 9 14 -6 15 -7 15 -16 6z"/>
<path d="M1370 1741 c0 -5 5 -13 10 -16 6 -3 10 -2 10 4 0 5 -4 13 -10 16 -5
3 -10 2 -10 -4z"/>
<path d="M1407 1719 c7 -7 15 -10 18 -7 3 3 -2 9 -12 12 -14 6 -15 5 -6 -5z"/>
<path d="M1430 1699 c-12 -8 -11 -9 5 -5 15 5 21 1 22 -13 1 -14 -4 -18 -20
-15 -21 4 -21 4 -2 -5 26 -11 35 -5 31 21 -3 26 -15 32 -36 17z"/>
<path d="M3653 1695 c0 -8 4 -12 9 -9 5 3 6 10 3 15 -9 13 -12 11 -12 -6z"/>
<path d="M1235 1679 c-3 -4 2 -6 10 -5 21 3 28 13 10 13 -9 0 -18 -4 -20 -8z"/>
<path d="M1480 1681 c0 -10 39 -11 45 -2 2 5 -7 9 -20 9 -14 0 -25 -3 -25 -7z"/>
<path d="M3526 1681 c-3 -5 1 -11 9 -14 9 -4 12 -1 8 9 -6 16 -10 17 -17 5z"/>
<path d="M1520 1658 c-12 -8 -11 -9 4 -4 13 5 17 2 12 -9 -3 -8 -1 -15 4 -15
12 0 13 27 2 34 -4 2 -14 0 -22 -6z"/>
<path d="M1370 1656 c0 -2 8 -10 18 -17 15 -13 16 -12 3 4 -13 16 -21 21 -21
13z"/>
<path d="M1493 1641 c0 -11 5 -18 9 -15 4 3 5 11 1 19 -7 21 -12 19 -10 -4z"/>
<path d="M1350 1645 c0 -5 5 -17 10 -25 5 -8 10 -10 10 -5 0 6 -5 17 -10 25
-5 8 -10 11 -10 5z"/>
<path d="M1410 1637 c0 -8 3 -16 6 -20 8 -8 34 3 34 15 0 6 -8 4 -17 -3 -15
-12 -16 -12 -10 4 3 9 2 17 -3 17 -6 0 -10 -6 -10 -13z"/>
<path d="M1471 1634 c0 -11 3 -14 6 -6 3 7 2 16 -1 19 -3 4 -6 -2 -5 -13z"/>
<path d="M3570 1640 c0 -5 5 -10 11 -10 5 0 7 5 4 10 -3 6 -8 10 -11 10 -2 0
-4 -4 -4 -10z"/>
<path d="M1306 1619 c2 -4 13 -7 24 -6 23 2 17 10 -10 12 -10 1 -17 -2 -14 -6z"/>
<path d="M1372 1604 c-7 -8 -8 -14 -3 -14 10 0 25 19 20 25 -2 1 -10 -3 -17
-11z"/>
<path d="M1550 1569 c0 -5 -6 -7 -12 -3 -7 4 -6 -1 3 -12 15 -18 15 -49 0 -40
-4 3 -7 -7 -8 -22 -1 -15 1 -21 4 -14 2 6 10 9 15 6 7 -4 8 -2 4 4 -4 6 -2 22
5 34 8 15 9 23 1 26 -6 2 -8 10 -5 18 3 8 2 14 -1 14 -3 0 -6 -5 -6 -11z"/>
<path d="M1570 1562 c0 -5 7 -17 16 -28 15 -18 15 -18 5 2 -6 12 -7 24 -4 28
3 3 1 6 -5 6 -7 0 -12 -4 -12 -8z"/>
<path d="M3575 1560 c3 -5 8 -10 11 -10 2 0 4 5 4 10 0 6 -5 10 -11 10 -5 0
-7 -4 -4 -10z"/>
<path d="M1428 1418 c5 -5 16 -8 23 -6 8 3 3 7 -10 11 -17 4 -21 3 -13 -5z"/>
<path d="M1373 1395 c0 -8 4 -12 9 -9 5 3 6 10 3 15 -9 13 -12 11 -12 -6z"/>
<path d="M1376 1358 c3 -5 10 -6 15 -3 13 9 11 12 -6 12 -8 0 -12 -4 -9 -9z"/>
<path d="M3545 1320 c-3 -6 1 -7 9 -4 18 7 21 14 7 14 -6 0 -13 -4 -16 -10z"/>
<path d="M1446 1298 c3 -5 10 -6 15 -3 13 9 11 12 -6 12 -8 0 -12 -4 -9 -9z"/>
<path d="M3555 1299 c-3 -4 2 -6 10 -5 21 3 28 13 10 13 -9 0 -18 -4 -20 -8z"/>
<path d="M3535 1240 c3 -5 8 -10 11 -10 2 0 4 5 4 10 0 6 -5 10 -11 10 -5 0
-7 -4 -4 -10z"/>
<path d="M3399 1198 c-1 -7 -1 -17 0 -22 1 -5 -5 -6 -13 -3 -10 4 -13 1 -10
-7 9 -23 29 -13 31 16 1 27 -6 41 -8 16z"/>
<path d="M3475 1182 c3 -3 0 -11 -7 -19 -6 -7 -9 -15 -7 -17 2 -2 12 6 21 18
13 18 14 23 2 23 -8 0 -12 -3 -9 -5z"/>
<path d="M1218 1164 c10 -8 21 -9 28 -3 6 5 14 6 17 2 4 -3 7 -2 7 4 0 5 -16
10 -35 10 -30 0 -32 -2 -17 -13z"/>
<path d="M3360 1060 c-12 -7 -10 -9 7 -7 12 0 19 5 17 9 -6 10 -6 10 -24 -2z"/>
<path d="M1155 1050 c-4 -6 -11 -7 -17 -4 -7 4 -8 2 -4 -4 10 -16 23 -15 30 3
6 17 0 20 -9 5z"/>
<path d="M3441 996 c-15 -18 5 -34 22 -17 9 9 7 10 -8 5 -18 -7 -18 -6 -6 9 7
9 11 17 8 17 -2 0 -10 -6 -16 -14z"/>
<path d="M1154 973 c2 -10 6 -17 10 -16 15 3 16 11 2 22 -12 10 -14 9 -12 -6z"/>
<path d="M3423 948 c-2 -32 -8 -56 -16 -64 -3 -4 -2 -15 3 -25 7 -12 6 -19 -2
-21 -8 -3 -7 -6 3 -10 11 -4 16 1 17 18 4 49 6 54 21 52 10 -2 16 5 17 19 1
12 -2 20 -7 17 -4 -2 -6 -11 -2 -19 4 -11 1 -13 -11 -9 -22 8 -20 20 7 40 12
9 15 14 6 11 -9 -3 -21 -1 -26 4 -5 5 -9 0 -10 -13z"/>
<path d="M1065 940 c-3 -6 1 -7 9 -4 18 7 21 14 7 14 -6 0 -13 -4 -16 -10z"/>
<path d="M1036 914 c-8 -20 -8 -24 2 -24 4 0 8 9 9 20 2 24 -3 26 -11 4z"/>
<path d="M979 866 c-9 -19 -9 -19 4 -4 8 10 16 15 19 12 4 -3 8 -1 12 4 3 5
-2 9 -10 9 -8 0 -20 -10 -25 -21z"/>
<path d="M1015 859 c-4 -6 -4 -13 -1 -16 3 -4 6 -1 6 6 0 7 5 9 12 5 7 -4 8
-3 4 4 -9 15 -13 15 -21 1z"/>
<path d="M3476 842 c-3 -5 1 -9 9 -9 8 0 12 4 9 9 -3 4 -7 8 -9 8 -2 0 -6 -4
-9 -8z"/>
<path d="M3391 804 c0 -11 3 -14 6 -6 3 7 2 16 -1 19 -3 4 -6 -2 -5 -13z"/>
<path d="M990 786 c0 -2 9 -6 20 -9 11 -3 18 -1 14 4 -5 9 -34 13 -34 5z"/>
<path d="M3158 773 c-24 -6 -23 -23 2 -23 11 0 20 7 20 15 0 8 -1 14 -2 14 -2
-1 -11 -3 -20 -6z"/>
<path d="M3270 761 c0 -6 5 -13 12 -17 6 -4 8 -3 4 4 -3 5 0 13 6 15 8 3 6 6
-4 6 -10 1 -18 -3 -18 -8z"/>
<path d="M3200 750 c8 -5 20 -10 25 -10 6 0 3 5 -5 10 -8 5 -19 10 -25 10 -5
0 -3 -5 5 -10z"/>
<path d="M1014 739 c-3 -6 -2 -15 3 -20 5 -5 9 -1 10 11 2 22 -2 25 -13 9z"/>
<path d="M3375 740 c-3 -5 -1 -10 4 -10 6 0 11 5 11 10 0 6 -2 10 -4 10 -3 0
-8 -4 -11 -10z"/>
<path d="M3139 724 c-7 -8 -18 -13 -26 -10 -8 4 -11 1 -8 -5 4 -6 13 -8 20 -5
10 4 13 -3 10 -25 -2 -18 1 -29 8 -29 7 0 6 -5 -3 -11 -13 -9 -13 -10 0 -6 8
2 16 9 16 15 3 25 5 27 14 12 5 -8 10 -10 10 -4 0 6 -6 17 -14 23 -16 14 -17
53 -1 48 5 -2 9 -13 7 -23 -2 -18 -2 -18 11 -2 8 10 17 15 20 11 4 -3 7 -1 7
5 0 7 -3 12 -7 13 -5 0 -18 2 -29 5 -12 2 -28 -3 -35 -12z"/>
<path d="M1046 716 c7 -19 32 -28 40 -14 4 7 3 8 -5 4 -6 -4 -14 0 -17 8 -3 9
-10 16 -15 16 -4 0 -6 -6 -3 -14z"/>
<path d="M3226 718 c3 -5 10 -6 15 -3 13 9 11 12 -6 12 -8 0 -12 -4 -9 -9z"/>
<path d="M975 700 c3 -5 8 -10 11 -10 2 0 4 5 4 10 0 6 -5 10 -11 10 -5 0 -7
-4 -4 -10z"/>
<path d="M1034 679 c-4 -7 -3 -9 4 -5 5 3 13 0 15 -6 4 -9 6 -10 6 -1 1 17
-16 25 -25 12z"/>
<path d="M3029 625 c-1 -3 -2 -8 -3 -12 -1 -5 -5 -14 -10 -22 -7 -10 -6 -12 4
-6 9 6 12 4 8 -7 -4 -9 0 -15 8 -15 8 0 13 6 10 13 -3 8 -1 16 4 19 11 7 2 35
-11 35 -5 0 -10 -2 -10 -5z m16 -14 c3 -5 2 -12 -3 -15 -5 -3 -9 1 -9 9 0 17
3 19 12 6z"/>
<path d="M3155 620 c-3 -5 -1 -10 4 -10 6 0 11 5 11 10 0 6 -2 10 -4 10 -3 0
-8 -4 -11 -10z"/>
<path d="M3135 561 c-3 -5 -2 -12 3 -15 5 -3 9 1 9 9 0 17 -3 19 -12 6z"/>
<path d="M995 520 c-3 -5 -1 -10 4 -10 6 0 11 5 11 10 0 6 -2 10 -4 10 -3 0
-8 -4 -11 -10z"/>
<path d="M1121 438 c-11 -9 -21 -14 -24 -11 -5 4 -4 -6 2 -36 1 -2 8 2 16 9
14 11 19 7 16 -12 -2 -15 17 -8 23 8 4 10 2 13 -6 8 -7 -4 -8 -3 -4 4 4 6 14
8 23 5 11 -4 14 -3 9 6 -5 7 -15 10 -25 7 -9 -4 -6 1 7 12 22 17 22 18 2 18
-11 0 -29 -8 -39 -18z m20 -1 c-6 -8 -9 -17 -6 -20 3 -4 2 -5 -2 -2 -3 3 -13
-1 -22 -7 -9 -7 -5 0 8 15 25 27 43 39 22 14z"/>
<path d="M2958 399 c-6 -4 4 -6 21 -5 17 0 31 4 31 8 0 8 -37 6 -52 -3z"/>
<path d="M1175 380 c10 -11 22 -17 28 -13 6 4 8 0 4 -10 -4 -11 -2 -14 9 -10
11 4 12 9 3 19 -6 8 -15 12 -19 9 -4 -3 -10 2 -14 10 -3 8 -11 15 -17 15 -7 0
-5 -8 6 -20z"/>
<path d="M2790 370 c0 -5 5 -10 11 -10 5 0 7 5 4 10 -3 6 -8 10 -11 10 -2 0
-4 -4 -4 -10z"/>
<path d="M1135 359 c-3 -4 2 -6 10 -5 21 3 28 13 10 13 -9 0 -18 -4 -20 -8z"/>
<path d="M2873 353 c0 -9 4 -10 14 -2 7 6 13 12 13 14 0 1 -6 2 -13 2 -8 0
-14 -6 -14 -14z"/>
<path d="M1173 332 c-1 -15 6 -19 30 -19 29 0 29 1 9 10 -12 6 -22 14 -22 19
0 17 -16 7 -17 -10z"/>
<path d="M2956 341 c-3 -5 1 -14 9 -21 10 -9 15 -9 15 -1 0 6 -5 11 -11 11 -5
0 -7 5 -4 10 3 6 4 10 1 10 -3 0 -7 -4 -10 -9z"/>
<path d="M1313 289 c-2 -23 3 -25 10 -4 4 8 3 16 -1 19 -4 3 -9 -4 -9 -15z"/>
<path d="M2845 300 c-3 -6 1 -7 9 -4 18 7 21 14 7 14 -6 0 -13 -4 -16 -10z"/>
<path d="M1190 291 c0 -6 4 -12 8 -15 5 -3 9 1 9 9 0 8 -4 15 -9 15 -4 0 -8
-4 -8 -9z"/>
<path d="M1231 284 c0 -11 3 -14 6 -6 3 7 2 16 -1 19 -3 4 -6 -2 -5 -13z"/>
<path d="M1150 281 c0 -6 4 -13 10 -16 6 -3 7 1 4 9 -7 18 -14 21 -14 7z"/>
<path d="M2831 273 c7 -12 15 -20 18 -17 3 2 -3 12 -13 22 -17 16 -18 16 -5
-5z"/>
<path d="M2910 286 c0 -2 7 -7 16 -10 8 -3 12 -2 9 4 -6 10 -25 14 -25 6z"/>
<path d="M1250 269 c0 -5 3 -9 8 -10 4 0 15 -2 26 -4 14 -3 16 -1 7 8 -14 14
-41 18 -41 6z"/>
<path d="M2860 253 c0 -6 5 -15 10 -18 6 -4 8 -10 5 -15 -3 -5 -1 -11 4 -14
12 -8 8 14 -7 39 -6 11 -12 15 -12 8z"/>
<path d="M2790 239 c0 -5 5 -7 10 -4 6 3 10 8 10 11 0 2 -4 4 -10 4 -5 0 -10
-5 -10 -11z"/>
</g>
</svg>
