<svg width="30" height="30" viewBox="0 0 30 30" fill="none" xmlns="http://www.w3.org/2000/svg">
<path d="M15 2.8125C8.28 2.8125 2.8125 8.28 2.8125 15C2.8125 21.72 8.28 27.1875 15 27.1875C21.72 27.1875 27.1875 21.72 27.1875 15C27.1875 8.28 21.72 2.8125 15 2.8125ZM15 4.6875C20.7056 4.6875 25.3125 9.29438 25.3125 15C25.3125 20.7056 20.7056 25.3125 15 25.3125C9.29438 25.3125 4.6875 20.7056 4.6875 15C4.6875 9.29438 9.29438 4.6875 15 4.6875ZM11.4553 10.1072L10.1062 11.4563L13.6519 15L10.1081 18.5447L11.4553 19.8928L15 16.3472L18.5447 19.8928L19.8928 18.5447L16.3472 15L19.8928 11.4553L18.5447 10.1072L15 13.6519L11.4553 10.1072Z" fill="black"/>
</svg>
